<?xml version="1.0" encoding="UTF-8"?>
<svg width="146px" height="24px" class="cls-history-status__svg" viewBox="0 0 146 25" preserveAspectRatio="none" version="1.1" xmlns="http://www.w3.org/2000/svg" xmlns:xlink="http://www.w3.org/1999/xlink">
    <g stroke="none" stroke-width="1" fill="none" fill-rule="evenodd">
        <g fill="#E5013B" transform="translate(-337.000000, -1395.000000)">
            <path d="M477.91483,1395.19254 C477.032145,1395.26298 476.101238,1395.38917 475.202784,1395.37501 C475.020109,1395.54718 474.88293,1395.7419 474.91406,1395.9797 C474.615897,1395.97447 474.208318,1396.20433 473.923833,1396.18604 C474.290381,1396.72672 477.143438,1396.36104 477.917565,1396.31142 C477.912094,1396.44332 477.969538,1396.6033 478.026983,1396.76329 L478.053,1396.841 L478.040562,1396.8464 C477.955719,1396.88313 477.915016,1396.92156 477.864742,1397.0297 L477.833,1397.1035 C477.878812,1397.21227 477.93426,1397.30846 478.012051,1397.37241 L478.064236,1397.36291 C478.03785,1397.30878 478.029063,1397.22518 478.049,1397.07738 C478.037,1397.01934 478.039222,1396.9734 478.049815,1396.93648 L478.07,1396.88931 L478.082096,1396.92223 C478.098914,1396.97452 478.113402,1397.02577 478.123229,1397.07493 L478.1364,1397.21516 C478.262127,1397.22932 478.388716,1397.24508 478.515994,1397.26174 L478.626322,1397.23529 L479,1397.12113 C478.939455,1397.1815 478.871658,1397.24112 478.797343,1397.29997 C480.204543,1397.49322 481.683001,1397.73749 483,1397.12113 C482.253227,1398.14763 479.985553,1398.95996 478.812052,1399.38832 C478.943353,1399.43273 479.069183,1399.48235 479.192277,1399.53982 C479.025416,1400.07788 478.710841,1400.56371 478.1364,1400.7152 C478.268043,1400.36749 478.10584,1400.06619 477.806732,1399.84846 L477.721,1399.791 L477.807,1399.77395 C477.8806,1399.74087 477.92988,1399.76908 477.9958,1399.74045 L478.049,1399.70648 C478.101,1399.60419 478.191,1399.57372 478.331,1399.54978 C478.329,1399.4366 478.343,1399.33648 478.499,1399.33648 C478.523,1399.26684 478.569,1399.24942 478.731,1399.14495 C478.373,1399.03395 478.373,1399.0296 478.087,1398.79237 C477.847,1398.91425 477.749,1399.16672 477.439,1399.14931 C477.4398,1399.16846 477.44188,1399.18761 477.44524,1399.21345 L477.451,1399.255 L477.432074,1399.24186 C477.397951,1399.21278 477.358033,1399.17289 477.310719,1399.11965 L477.234,1399.02945 C477.09,1398.93369 476.976,1399.11869 476.836,1399.08169 C476.694,1399.15569 476.642,1399.37551 476.448,1399.3668 C476.455,1399.40816 476.4385,1399.44135 476.41925,1399.47399 L476.41,1399.489 C476.048188,1399.52255 475.728322,1399.65904 475.564519,1399.92641 L475.550059,1399.95298 C476.009046,1400.06721 476.477835,1400.20064 476.954693,1400.09521 C477.012137,1400.13439 477.109245,1400.20361 477.215927,1400.28099 L477.43314,1400.44015 L477.534605,1400.51574 C475.998987,1400.75698 474.720965,1400.54166 473.349126,1401.01444 C473.618434,1401.05633 473.871419,1401.1257 474.082488,1401.29244 C473.669042,1401.24561 473.239313,1401.23565 472.802805,1401.23973 C472.643301,1401.31557 472.481883,1401.40305 472.318134,1401.50307 C472.971902,1401.89486 474.689754,1402.12472 475.545945,1402.28144 C476.517023,1402.46427 477.72882,1402.38853 478.702635,1402.2527 C478.029718,1402.38853 477.340389,1402.4486 476.692091,1402.67846 C476.935545,1402.7098 477.203617,1402.87697 477.430658,1402.92921 C477.135231,1403.13033 476.951957,1403.46466 476.59088,1403.6266 C476.703033,1403.74675 476.804244,1403.92437 476.930074,1404.03146 C476.470521,1404.49378 475.778456,1404.2143 475.264195,1404.03407 C475.390025,1403.90086 475.463882,1403.66839 475.617066,1403.52212 C474.897647,1403.31578 474.025044,1403.15645 473.349392,1403.54041 C473.486163,1403.62399 473.598316,1403.63966 473.666702,1403.91131 C473.847241,1403.94526 474.000425,1403.99228 474.167286,1404.03929 C473.874595,1404.3893 473.431455,1404.62176 472.988315,1404.65311 C472.917193,1404.57475 472.821453,1404.35012 472.783157,1404.26915 C472.728449,1404.24564 472.463111,1404.38669 472.359165,1404.36318 C472.271631,1404.27698 472.312663,1404.13333 472.2306,1404.0628 C472.167685,1404.0837 471.902348,1404.08892 471.855845,1404.07847 C472.054118,1404.33853 472.023309,1404.52568 472.201618,1404.71911 L472.263425,1404.63435 C472.239351,1404.67401 472.229608,1404.71236 472.232923,1404.74946 C472.272188,1404.78892 472.322715,1404.82886 472.386519,1404.8699 L472.316969,1404.89527 C472.416969,1404.98728 472.60077,1405.0707 472.842695,1405.14674 C472.958878,1405.05232 473.092194,1404.9728 473.259123,1404.92998 C473.953923,1404.75236 474.725315,1405.31394 475.524061,1404.8908 C475.48303,1404.79677 475.461146,1404.70012 475.455675,1404.59826 C475.942582,1404.44154 476.459579,1404.47549 476.93828,1404.68706 C477.036756,1404.60609 476.951957,1404.4546 476.979312,1404.35012 C477.050433,1404.53818 477.18994,1404.60348 477.230971,1404.82027 C477.069581,1404.92737 476.869894,1404.85945 476.724916,1404.96132 C476.724916,1404.98483 476.817921,1405.21991 476.815186,1405.22252 C476.180565,1405.33745 475.507649,1405.36357 474.859351,1405.47066 L475.029503,1405.55726 L475.329101,1405.59602 C476.582098,1405.75428 477.770553,1405.86366 477.91483,1405.97112 C477.351109,1406.01489 476.767719,1406.08079 476.185676,1406.1191 C476.522699,1406.14865 476.856878,1406.21472 477.187205,1406.33261 C476.629176,1406.59642 475.882403,1406.31955 475.316168,1406.51283 C474.933208,1406.64343 474.50648,1407.08486 474.156345,1407.36695 C474.812849,1407.54718 475.515855,1407.46359 476.194242,1407.41396 C476.142269,1407.53412 475.920699,1407.73263 475.841371,1407.8136 C475.983614,1407.84494 476.128592,1407.8789 476.27357,1407.91546 C475.88295,1408.0983 475.439051,1408.12404 474.988668,1408.12649 L474.602128,1408.12602 C473.894564,1408.12615 473.204004,1408.16321 472.712036,1408.75652 C472.810511,1408.23412 472.545174,1408.32554 473.171589,1407.97032 C473.079952,1407.97032 472.983314,1407.96913 472.885057,1407.969 L472.687388,1407.9708 C472.060946,1407.98512 471.460005,1408.10135 471.743693,1408.88712 C471.470149,1408.93936 470.961359,1409.0151 470.698757,1408.99421 C470.436156,1408.59196 470.458039,1408.61025 470.003957,1408.86883 C469.678038,1408.94352 469.353845,1409.09237 469.03549,1409.20935 C469.133464,1409.21911 469.225541,1409.23077 469.311194,1409.24169 C469.901405,1409.18358 470.521275,1409.15513 470.994184,1409.49832 C470.370925,1409.8131 469.524582,1409.40085 468.863813,1409.8355 C469.214928,1409.91497 469.487221,1410.06144 469.593642,1410.3445 L469.61425,1410.35034 C469.706392,1410.30688 469.80048,1410.2731 469.896267,1410.24776 C469.885393,1410.23378 469.875976,1410.21918 469.867185,1410.20473 L470.034242,1410.21717 C470.276394,1410.17344 470.528329,1410.17831 470.786237,1410.21267 C471.140083,1410.18234 471.486058,1410.10362 471.776518,1409.9633 C471.658273,1410.11456 471.523998,1410.2321 471.387673,1410.33686 C472.152792,1410.5324 472.944036,1410.85445 473.668725,1410.83952 C473.726017,1410.83109 473.784351,1410.82751 473.842868,1410.82513 C473.93263,1410.81994 474.020535,1410.80504 474.107107,1410.78341 C474.055134,1410.66326 473.989483,1410.55617 473.90742,1410.45691 C474.066075,1410.40467 475.729219,1410.21661 475.827694,1410.33676 C475.932472,1410.46323 475.945414,1410.57748 475.902148,1410.6862 C476.247292,1410.76493 476.598744,1410.81785 476.954693,1410.74129 C477.012137,1410.77941 477.109245,1410.84676 477.215927,1410.92204 L477.43314,1411.0769 L477.534605,1411.15045 C476.723458,1411.27443 475.984186,1411.27447 475.264995,1411.31471 C475.052796,1411.50429 474.879459,1411.71538 474.91406,1411.9797 C474.615897,1411.97447 474.208318,1412.20433 473.923833,1412.18604 C474.290381,1412.72672 477.143438,1412.36104 477.917565,1412.31142 C477.912094,1412.44332 477.969538,1412.6033 478.026983,1412.76329 L478.053,1412.841 L478.040562,1412.8464 C477.991653,1412.86758 477.957411,1412.88931 477.927549,1412.92465 C477.97232,1412.92245 478.016273,1412.91851 478.05999,1412.9144 L478.07,1412.889 L478.079247,1412.91258 C478.294269,1412.89209 478.503431,1412.8675 478.702635,1412.84047 C478.499272,1412.88041 478.29441,1412.91361 478.089634,1412.94668 L478.082096,1412.92223 C478.098914,1412.97452 478.113402,1413.02577 478.123229,1413.07493 L478.1364,1413.21516 C478.262127,1413.22932 478.388716,1413.24508 478.515994,1413.26174 L478.626322,1413.23529 L479,1413.12113 C478.939455,1413.1815 478.871658,1413.24112 478.797343,1413.29997 C480.204543,1413.49322 481.683001,1413.73749 483,1413.12113 C482.253227,1414.14763 479.985553,1414.95996 478.812052,1415.38832 C478.943353,1415.43273 479.069183,1415.48235 479.192277,1415.53982 C479.025416,1416.07788 478.710841,1416.56371 478.1364,1416.7152 C478.268043,1416.36749 478.10584,1416.06619 477.806732,1415.84846 L477.721,1415.791 L477.807,1415.77395 C477.8806,1415.74087 477.92988,1415.76908 477.9958,1415.74045 L478.049,1415.70648 C478.101,1415.60419 478.191,1415.57372 478.331,1415.54978 C478.329,1415.4366 478.343,1415.33648 478.499,1415.33648 C478.523,1415.26684 478.569,1415.24942 478.731,1415.14495 C478.373,1415.03395 478.373,1415.0296 478.087,1414.79237 C477.847,1414.91425 477.749,1415.16672 477.439,1415.14931 C477.4398,1415.16846 477.44188,1415.18761 477.44524,1415.21345 L477.451,1415.255 L477.432074,1415.24186 C477.397951,1415.21278 477.358033,1415.17289 477.310719,1415.11965 L477.234,1415.02945 C477.172125,1414.9883 477.115789,1414.99899 477.060549,1415.02163 C477.127411,1415.11768 477.20265,1415.19305 477.230971,1415.33865 C477.069581,1415.44284 476.869894,1415.37677 476.724916,1415.47588 C476.724916,1415.49875 476.817921,1415.72748 476.815186,1415.73002 L476.648953,1415.75461 C477.321179,1415.83531 477.824167,1415.90359 477.91483,1415.97112 C477.023615,1416.04032 476.083241,1416.16482 475.176746,1416.14822 C475.302495,1416.22369 475.429297,1416.30478 475.556886,1416.3552 C474.868971,1416.57351 474.015705,1416.23248 473.27948,1416.22709 C473.038762,1416.45792 472.717927,1416.63427 472.294843,1416.7152 C472.32779,1416.65208 472.347386,1416.59049 472.354926,1416.53064 C472.274654,1416.6003 472.20058,1416.68521 472.132124,1416.78723 C473.798003,1416.91938 475.540474,1416.23829 477.187205,1416.8101 C476.629176,1417.06678 475.882403,1416.7974 475.316168,1416.98546 C474.933208,1417.11253 474.50648,1417.54202 474.156345,1417.81649 C474.812849,1417.99185 475.515855,1417.91052 476.194242,1417.86224 C476.142269,1417.97914 475.920699,1418.17228 475.841371,1418.25107 C475.983614,1418.28156 476.128592,1418.3146 476.27357,1418.35018 C475.88295,1418.52808 475.439051,1418.55312 474.988668,1418.55551 L474.602128,1418.55505 C473.894564,1418.55517 473.204004,1418.59123 472.712036,1419.16851 C472.810511,1418.66023 472.545174,1418.74918 473.171589,1418.40355 L473.07841,1418.40325 L473.07841,1418.40325 L472.786386,1418.40256 C472.126653,1418.40786 471.445074,1418.4908 471.743693,1419.29557 C471.470149,1419.3464 470.961359,1419.4201 470.698757,1419.39977 C470.436156,1419.0084 470.458039,1419.02619 470.003957,1419.27778 C469.869764,1419.30771 469.735863,1419.34986 469.602542,1419.39705 C469.505155,1419.47982 469.356796,1419.52792 469.180478,1419.55611 C469.048461,1419.60547 468.918365,1419.65231 468.789425,1419.68949 C469.514315,1419.63358 470.378711,1419.45568 470.994184,1419.89026 C470.86939,1419.95158 470.735653,1419.98455 470.596252,1420.00144 L342.344786,1420.00011 C342.417024,1419.91696 342.503572,1419.82189 342.517236,1419.81114 C340.684443,1419.56717 338.617836,1419.09702 337,1419.94584 C337.252669,1419.78827 337.539279,1419.46806 337.754236,1419.31049 C337.527965,1419.22154 337.475169,1419.29778 337.313008,1419.15547 C338.401042,1419.31552 340.117332,1419.00066 340.96707,1418.4631 C340.665483,1418.42751 340.372405,1418.37857 340.092367,1418.31206 C340.469547,1418.28346 340.866979,1418.24967 341.276794,1418.21363 C341.29576,1418.19666 341.31112,1418.1793 341.325543,1418.16179 C340.572255,1418.22524 340.457528,1418.10179 340.125411,1417.76128 C339.747297,1417.88172 339.377455,1418.00698 339.01381,1418.12654 C339.638755,1417.54331 340.488371,1417.3754 341.355234,1417.22525 C341.030807,1417.19557 340.724505,1417.13129 340.473256,1416.95971 C340.730867,1416.84461 341.050851,1416.55016 341.335952,1416.3375 C340.888644,1416.32536 340.448175,1416.32216 340.050884,1416.32216 C340.400548,1416.24091 340.770285,1416.18855 341.146968,1416.14861 L341.523,1416.11131 L341.427404,1416.06502 C340.654541,1415.73036 339.665644,1415.77133 338.798853,1415.96604 C338.881819,1415.82118 339.089234,1415.71952 339.258937,1415.60008 C339.285335,1415.4171 338.934615,1415.4603 338.968556,1415.26716 C339.153344,1415.15279 339.356987,1415.00285 339.470123,1414.84783 C338.768683,1414.82241 337.901312,1414.89866 337.313008,1414.87832 C338.832793,1414.33701 340.827747,1415.26461 342.087321,1414.48187 C343.539226,1413.57714 339.964147,1413.29759 338.870505,1413.34079 C339.531347,1413.06751 340.308081,1413.1545 341.07043,1413.30827 L341.088,1413.299 L341.151892,1413.20467 C341.237627,1413.09221 341.355713,1412.96403 341.41228,1412.86301 C341.537737,1412.9686 341.688947,1413.03606 341.859381,1413.07345 C342.170013,1413.02985 342.501834,1413.02985 342.836372,1413.04732 C342.929806,1413.03078 343.024948,1413.01027 343.121133,1412.98729 C342.702935,1412.91609 342.277547,1412.85034 341.853508,1412.75914 C342.219313,1412.69053 342.671854,1412.52788 343.071599,1412.47197 L343.023331,1412.45705 C342.652842,1412.50887 342.389362,1412.56008 342.373931,1412.59871 C342.422721,1412.47328 342.510474,1412.39745 342.621426,1412.35053 C341.333354,1412.09855 339.507988,1412.49049 338.089871,1412.30932 C339.404354,1411.86408 341.071035,1411.84221 342.621335,1411.72984 C342.597073,1411.67974 342.590274,1411.60426 342.600202,1411.49321 C342.622829,1411.24669 342.698253,1411.20603 343.064057,1411.16283 C343.214904,1411.13741 343.339353,1411.09167 343.411005,1410.9951 C343.339353,1410.88327 343.128167,1410.9214 343.04143,1410.82736 L343.041,1410.826 L342.877107,1410.76977 C342.387526,1410.62793 341.738697,1410.64048 341.182238,1410.78957 C341.167154,1410.82261 341.419823,1410.99034 341.427365,1411.00559 C341.035162,1410.99034 340.891857,1410.97255 340.529824,1410.87852 C341.106815,1410.6803 341.774313,1410.32704 342.245711,1410.12119 C342.272109,1410.07799 342.494609,1409.82893 342.517236,1409.81114 C340.684443,1409.56717 338.617836,1409.09702 337,1409.94584 C337.252669,1409.78827 337.539279,1409.46806 337.754236,1409.31049 C337.527965,1409.22154 337.475169,1409.29778 337.313008,1409.15547 C338.591438,1409.34353 340.737239,1408.87592 341.325543,1408.16179 C340.699842,1408.21449 340.51471,1408.13825 340.279617,1407.91577 C340.215023,1407.90522 340.153386,1407.89118 340.092367,1407.87628 L340.228792,1407.86634 C340.172259,1407.81012 340.111203,1407.74603 340.039571,1407.67384 C340.86923,1407.56965 341.804483,1407.62556 342.585117,1407.32567 C342.393815,1407.28825 342.191855,1407.27275 341.987803,1407.26216 L341.57945,1407.2425 C341.292795,1407.22613 341.013358,1407.19695 340.765253,1407.10708 C340.162292,1407.28837 339.580525,1407.49412 339.01381,1407.68561 C339.438453,1407.2783 339.966826,1407.06808 340.533858,1406.92675 L340.473256,1406.95971 C340.820205,1406.80469 341.280289,1406.32437 341.615924,1406.15664 C341.266315,1405.96682 340.861379,1405.86629 340.437579,1405.83111 L340.050884,1405.83111 L340.050884,1405.83111 L340.116461,1405.81661 C339.674388,1405.81255 339.222066,1405.87097 338.798853,1405.96604 C338.881819,1405.82118 339.089234,1405.71952 339.258937,1405.60008 C339.285335,1405.4171 338.934615,1405.4603 338.968556,1405.26716 C339.153344,1405.15279 339.356987,1405.00285 339.470123,1404.84783 C338.768683,1404.82241 337.901312,1404.89866 337.313008,1404.87832 C338.548425,1404.4383 340.097827,1404.96891 341.310972,1404.76244 C341.267409,1404.74955 341.227488,1404.73634 341.188219,1404.72225 L340.955967,1404.62438 C341.333036,1404.55087 341.773352,1404.46305 342.232435,1404.37788 C343.261853,1403.55565 339.921135,1403.29929 338.870505,1403.34079 C339.534233,1403.06632 340.314867,1403.15527 341.080416,1403.31029 C341.152069,1403.18068 341.336857,1402.9977 341.41228,1402.86301 C341.862717,1403.24212 342.645143,1403.1297 343.457287,1402.89891 C342.625476,1402.87826 341.733032,1402.90856 340.986137,1402.78032 C341.394139,1402.5238 341.916561,1402.45171 342.465997,1402.45395 C342.524733,1402.393 342.601197,1402.35303 342.688418,1402.32636 C342.411913,1402.28111 342.132419,1402.23077 341.853508,1402.16912 C342.218417,1402.09877 342.669638,1401.93225 343.068661,1401.87439 C342.839234,1401.85001 342.693707,1401.85462 342.631153,1401.75202 C341.341955,1401.48828 339.511328,1401.89344 338.089871,1401.7068 C339.522919,1401.20791 341.374568,1401.2262 343.037659,1401.07732 C343.043315,1400.99798 343.059873,1400.92484 343.086168,1400.8578 L343.04143,1400.82736 C343.03316,1400.78501 343.117022,1400.71283 343.223016,1400.64257 C343.499903,1400.33771 344.057454,1400.23322 344.668562,1400.30654 L344.669224,1400.30581 C344.278377,1400.11089 343.686302,1400.01424 343.052743,1400.18663 C342.551177,1399.97767 341.808254,1399.97245 341.182238,1400.14484 C341.167154,1400.1788 341.419823,1400.35119 341.427365,1400.36686 C341.035162,1400.35119 340.891857,1400.3329 340.529824,1400.23626 C341.106815,1400.03253 341.774313,1399.66946 342.245711,1399.45789 C342.272109,1399.41349 342.494609,1399.15751 342.517236,1399.13923 C340.684443,1398.88848 338.617836,1398.40527 337,1399.27767 C337.252669,1399.11572 337.539279,1398.78661 337.754236,1398.62467 C337.527965,1398.53325 337.475169,1398.61161 337.313008,1398.46534 C338.591438,1398.65863 340.737239,1398.17802 341.325543,1397.44406 C340.510968,1397.51458 340.443087,1397.36048 340.039571,1396.94256 C340.86923,1396.83547 341.804483,1396.89293 342.585117,1396.58472 C342.393815,1396.54625 342.191855,1396.53032 341.987803,1396.51944 L341.57945,1396.49924 C341.173387,1396.47541 340.781808,1396.42515 340.473256,1396.2086 C340.820205,1396.04927 341.280289,1395.5556 341.615924,1395.38321 C340.820205,1394.93918 339.737876,1394.97052 338.798853,1395.18731 C338.837847,1395.11734 338.904331,1395.05717 338.981471,1395.00031 L476.895456,1395.00098 C477.441664,1395.07067 477.835619,1395.1319 477.91483,1395.19254 Z M341.960829,1417.26001 C341.478587,1417.36006 341.01132,1417.4874 340.556128,1417.6257 L340.677548,1417.61765 C341.327193,1417.57536 341.999641,1417.55059 342.585117,1417.32567 C342.393815,1417.28825 342.191855,1417.27275 341.987803,1417.26216 L341.960829,1417.26001 Z M473.214598,1411.6842 L473.193877,1411.69049 C473.130264,1411.7141 473.066424,1411.73923 473.002321,1411.76597 C472.982913,1411.93557 472.933208,1412.09956 472.748414,1412.29499 C472.808325,1412.31749 472.873926,1412.3382 472.942062,1412.35834 L472.914,1412.37329 C472.96,1412.34935 473.004,1412.32976 473.12,1412.30147 C473.122,1412.02288 473.442,1412.17524 473.454,1411.73559 C473.373609,1411.72258 473.293808,1411.71022 473.214598,1411.6842 Z M468.914,1411.64219 C468.83838,1411.66962 468.786521,1411.74972 468.717559,1411.78975 C468.775313,1411.84037 468.827935,1411.88234 468.871488,1411.90745 C468.74716,1411.92942 468.643529,1411.94271 468.551441,1411.9467 L468.54452,1411.98308 C468.77302,1412.02705 469.030155,1412.06482 469.298963,1412.09182 C469.256,1412.05354 469.274,1411.94254 469.088,1411.7423 C469.122,1411.68354 469.094,1411.60519 469.16,1411.53772 C469.076,1411.46154 469.016,1411.58342 468.914,1411.64219 Z M472.772753,1405.80336 L472.710796,1405.82378 L472.596522,1405.87493 L472.596522,1405.87493 L472.487,1405.93831 C472.506205,1406.22251 472.444652,1406.25603 472.354706,1406.30039 L472.32,1406.31731 L472.521315,1406.32661 C473.302143,1406.3354 474.096681,1406.19867 474.887524,1406.13088 L475.100069,1406.14647 C474.313963,1406.124 473.529996,1405.80347 472.772753,1405.80336 Z M466.537378,1404.24805 L466.525398,1404.2543 C466.425137,1404.31494 466.317995,1404.36978 466.205799,1404.41808 L466.206,1404.425 L466.221,1404.436 L466.242606,1404.43729 C466.258431,1404.43924 466.260845,1404.44336 466.256332,1404.45055 L466.25,1404.457 L466.283607,1404.48275 L466.355794,1404.52296 C466.580781,1404.48275 466.796949,1404.42567 466.990442,1404.35319 L467,1404.35518 C466.927548,1404.32888 466.85054,1404.30787 466.732188,1404.28396 L466.567968,1404.25336 L466.537378,1404.24805 L466.537378,1404.24805 Z M471.530329,1403.53139 C471.339494,1403.5461 471.103469,1403.57119 470.848474,1403.59495 C470.854186,1403.62349 470.861843,1403.65491 470.869487,1403.68918 C470.799487,1403.79365 470.689487,1403.82629 470.589487,1403.872 C470.663487,1403.92206 470.755487,1403.91553 471.077487,1403.95253 C471.189487,1403.94818 471.303487,1403.94165 471.413487,1403.93512 C471.428487,1403.89884 471.450432,1403.87315 471.326543,1403.55071 L471.530329,1403.53139 Z M471.625487,1402.69453 C471.487487,1402.75329 471.375487,1402.86647 471.089487,1402.84471 C471.076457,1402.8524 471.063496,1402.85912 471.049662,1402.864 C471.143835,1402.89137 471.235034,1402.91471 471.321878,1402.92921 C471.183024,1402.99777 471.062141,1403.08182 470.943389,1403.16925 C471.017703,1403.28199 471.065077,1403.34351 471.280294,1403.43579 C471.267071,1403.40061 471.251046,1403.36145 471.233487,1403.31918 C471.337487,1403.21253 471.271487,1402.95135 471.647487,1402.93394 C471.673487,1402.85559 471.701487,1402.77506 471.625487,1402.69453 Z M468.928932,1401.03322 C468.980905,1401.13233 469.030143,1401.23399 469.07391,1401.33818 C468.884499,1401.32831 468.713417,1401.34612 468.548802,1401.37162 C469.498776,1401.55946 470.937927,1401.6364 471.658291,1401.26757 C470.709587,1401.2913 469.76878,1401.28877 468.928932,1401.03322 Z M471.318887,1399.6883 C470.992594,1399.73158 470.599669,1399.80699 470.192403,1399.87754 C470.221305,1399.88066 470.24943,1399.88596 470.2775,1399.89148 C470.279375,1399.91922 470.277075,1400.01134 470.271372,1400.12835 L470.379326,1400.12686 L470.665693,1400.09521 C470.717189,1400.12069 470.791806,1400.15887 470.878138,1400.20373 C471.200592,1400.16799 471.511639,1400.09126 471.776518,1399.9633 C471.62729,1400.15419 471.452532,1400.29139 471.280341,1400.41695 C471.345565,1400.45096 471.408026,1400.48464 471.465183,1400.51574 L471.091981,1400.55345 C470.923263,1400.67782 470.767847,1400.8062 470.65499,1400.98239 C471.137481,1401.04776 471.649984,1401.04235 472.061005,1400.86765 C472.110628,1400.73613 472.117061,1400.5838 472.069209,1400.40604 C472.13896,1400.51723 472.219402,1400.61218 472.306233,1400.6882 L472.294843,1400.7152 C472.48843,1400.3443 472.221095,1400.02622 471.755424,1399.80604 L471.721,1399.791 L471.705544,1399.79469 C471.56532,1399.80416 471.4082,1399.75262 471.269,1399.78048 L471.305687,1399.71553 L471.318887,1399.6883 Z M473.053271,1400.40983 L472.952805,1400.4747 C472.776201,1400.5779 472.570715,1400.65828 472.331946,1400.70781 C472.651571,1400.97361 473.053051,1400.98267 473.324773,1400.60455 C473.233851,1400.54196 473.14293,1400.47625 473.053271,1400.40983 Z M473.661712,1399.72344 C473.555622,1399.92254 473.417315,1400.10921 473.238298,1400.26795 C473.895108,1400.09467 474.593175,1400.22857 475.280608,1400.21014 C475.299686,1400.12133 475.314605,1400.03054 475.321742,1399.93949 C474.982781,1399.84043 474.329767,1399.76988 473.661712,1399.72344 Z M473.016,1395.58106 C472.998,1395.87053 473.002,1396.11647 472.546,1396.47776 C472.638,1396.44729 472.736,1396.45165 472.914,1396.37329 C472.96,1396.34935 473.004,1396.32976 473.12,1396.30147 C473.122,1396.02288 473.442,1396.17524 473.454,1395.73559 C473.306,1395.71165 473.16,1395.68988 473.016,1395.58106 Z M468.914,1395.64219 C468.8,1395.68354 468.74,1395.8446 468.594,1395.8076 C468.514,1396.00783 468.536,1396.19066 468.434,1396.34736 C468.538,1396.34736 468.692,1396.38872 468.792,1396.3996 C468.899386,1396.41073 468.990793,1396.35388 469.012979,1396.46888 C469.099348,1396.46836 469.186677,1396.46579 469.274094,1396.46288 L469.34,1396.44748 C469.392,1396.3713 469.49,1396.36477 469.566,1396.26901 C469.522,1395.97519 469.438,1396.21025 469.304,1396.09707 C469.256,1396.05354 469.274,1395.94254 469.088,1395.7423 C469.122,1395.68354 469.094,1395.60519 469.16,1395.53772 C469.076,1395.46154 469.016,1395.58342 468.914,1395.64219 Z" id="Combined-Shape-Copy-21"></path>
        </g>
    </g>
</svg>
