<?xml version="1.0" encoding="UTF-8"?>
<svg xmlns="http://www.w3.org/2000/svg" baseProfile="tiny" version="1.2" viewBox="0 0 146 24">
  <!-- Generator: Adobe Illustrator 28.6.0, SVG Export Plug-In . SVG Version: 1.2.0 Build 709)  -->
  <g>
    <g id="Layer_1">
      <path id="Combined-Shape-Copy-21" d="M140.9.2c-.9,0-1.8.2-2.7.2-.2.2-.3.4-.3.6-.3,0-.7.2-1,.2.4.5,3.2.2,4,.1,0,.1,0,.3.1.4h0c0,0,0,0,0,0,0,0-.1,0-.2.2h0c0,.2.1.3.2.3h0c0,0,0-.1,0-.3,0,0,0,0,0-.1h0s0,0,0,0c0,0,0,0,0,.1h0c.1.1.3.2.4.2h.1s.4-.1.4-.1c0,0-.1.1-.2.2,1.4.2,2.9.4,4.2-.2-.7,1-3,1.8-4.2,2.2.1,0,.3,0,.4.1-.2.5-.5,1-1.1,1.1.1-.3,0-.6-.3-.8h0c0,0,0,0,0,0,0,0,.1,0,.2,0h0c0-.1.1-.2.3-.2,0-.1,0-.2.2-.2,0,0,0,0,.2-.2-.4-.1-.4-.1-.6-.3-.2.1-.3.4-.6.3,0,0,0,0,0,0h0s0,0,0,0c0,0,0,0-.1-.1h0c-.1-.2-.3,0-.4,0-.1,0-.2.3-.4.3,0,0,0,0,0,.1h0c-.4,0-.7.2-.8.4h0c.5.1.9.3,1.4.2,0,0,.2.1.3.2l.2.2h.1c-1.5.3-2.8,0-4.2.6.3,0,.5.1.7.3-.4,0-.8,0-1.3,0-.2,0-.3.2-.5.3.7.4,2.4.6,3.2.7,1,.2,2.2.1,3.2,0-.7.1-1.4.2-2,.4.2,0,.5.2.7.2-.3.2-.5.5-.8.7.1.1.2.3.3.4-.5.4-1.2.2-1.7,0,.1-.1.2-.4.4-.5-.7-.2-1.6-.4-2.3,0,.1,0,.2,0,.3.4.2,0,.3,0,.5.1-.3.3-.7.6-1.2.6,0,0-.2-.3-.2-.4,0,0-.3.1-.4,0,0,0,0-.2-.1-.3,0,0-.3,0-.4,0,.2.2.2.4.3.6h0s0,0,0,0c0,0,0,0,.2.1h0c.1.1.3.2.5.3.1,0,.2-.2.4-.2.7-.2,1.5.4,2.3,0,0,0,0-.2,0-.3.5-.2,1-.1,1.5,0,0,0,0-.2,0-.3,0,.2.2.2.3.5-.2.1-.4,0-.5.1,0,0,0,.2,0,.3-.6.1-1.3.1-2,.2h.2c0,0,.3.1.3.1,1.3.2,2.4.3,2.6.4-.6,0-1.1.1-1.7.1.3,0,.7,0,1,.2-.6.3-1.3,0-1.9.2-.4.1-.8.5-1.2.8.7.2,1.4,0,2,0,0,.1-.3.3-.4.4.1,0,.3,0,.4,0-.4.2-.8.2-1.3.2h-.4c-.7,0-1.4,0-1.9.6,0-.5-.2-.4.5-.8,0,0-.2,0-.3,0h-.2c-.6,0-1.2.1-.9.9-.3,0-.8.1-1,.1-.3-.4-.2-.4-.7-.1-.3,0-.7.2-1,.3,0,0,.2,0,.3,0,.6,0,1.2,0,1.7.2-.6.3-1.5,0-2.1.3.4,0,.6.2.7.5h0c0,0,.2,0,.3,0,0,0,0,0,0,0h.2c.2,0,.5,0,.8,0,.4,0,.7-.1,1-.2-.1.1-.3.3-.4.4.8.2,1.6.5,2.3.5,0,0,.1,0,.2,0,0,0,.2,0,.3,0,0-.1-.1-.2-.2-.3.2,0,1.8-.2,1.9-.1.1.1.1.2,0,.3.3,0,.7.1,1.1,0,0,0,.2.1.3.2h.2c0,.1.1.2.1.2-.8.1-1.6.1-2.3.2-.2.2-.4.4-.4.6-.3,0-.7.2-1,.2.4.5,3.2.2,4,.1,0,.1,0,.3.1.4h0c0,0,0,0,0,0,0,0,0,0-.1,0,0,0,0,0,.1,0h0s0,0,0,0c.2,0,.4,0,.6,0-.2,0-.4,0-.6.1h0s0,0,0,.1h0c.1.1.3.2.4.2h.1s.4-.1.4-.1c0,0-.1.1-.2.2,1.4.2,2.9.4,4.2-.2-.7,1-3,1.8-4.2,2.2.1,0,.3,0,.4.1-.2.5-.5,1-1.1,1.1.1-.3,0-.6-.3-.8h0c0,0,0,0,0,0,0,0,.1,0,.2,0h0c0-.1.1-.2.3-.2,0-.1,0-.2.2-.2,0,0,0,0,.2-.2-.4-.1-.4-.1-.6-.3-.2.1-.3.4-.6.3,0,0,0,0,0,0h0s0,0,0,0c0,0,0,0-.1-.1h0c0-.1-.1-.1-.2,0,0,0,.1.2.2.3-.2.1-.4,0-.5.1,0,0,0,.2,0,.2h-.2c.7.1,1.2.2,1.3.2-.9,0-1.8.2-2.7.2.1,0,.3.2.4.2-.7.2-1.5-.1-2.3-.1-.2.2-.6.4-1,.5,0,0,0-.1,0-.2,0,0-.2.1-.2.2,1.7.1,3.4-.5,5.1,0-.6.2-1.3,0-1.9.2-.4.1-.8.5-1.2.8.7.2,1.4,0,2,0,0,.1-.3.3-.4.4.1,0,.3,0,.4,0-.4.2-.8.2-1.3.2h-.4c-.7,0-1.4,0-1.9.6,0-.5-.2-.4.5-.7h0s-.3,0-.3,0c-.7,0-1.3,0-1,.9-.3,0-.8.1-1,.1-.3-.4-.2-.4-.7-.1-.1,0-.3,0-.4.1,0,0-.2.1-.4.2-.1,0-.3,0-.4.1.7,0,1.6-.2,2.2.2-.1,0-.3,0-.4.1H5.3c0,0,.2-.2.2-.2-1.8-.2-3.9-.7-5.5.1.3-.2.5-.5.8-.6-.2,0-.3,0-.4-.1,1.1.2,2.8-.1,3.7-.7-.3,0-.6,0-.9-.1.4,0,.8,0,1.2,0,0,0,0,0,0,0-.8,0-.9,0-1.2-.4-.4.1-.7.2-1.1.4.6-.6,1.5-.7,2.3-.9-.3,0-.6,0-.9-.3.3-.1.6-.4.9-.6-.4,0-.9,0-1.3,0,.3,0,.7-.1,1.1-.2h.4s0,0,0,0c-.8-.3-1.8-.3-2.6,0,0-.1.3-.2.5-.4,0-.2-.3-.1-.3-.3.2-.1.4-.3.5-.4-.7,0-1.6,0-2.2,0,1.5-.5,3.5.4,4.8-.4,1.5-.9-2.1-1.1-3.2-1.1.7-.3,1.4-.2,2.2,0h0s0,0,0,0c0-.1.2-.2.3-.3.1.1.3.2.4.2.3,0,.6,0,1,0,0,0,.2,0,.3,0-.4,0-.8-.1-1.3-.2.4,0,.8-.2,1.2-.3h0c-.4,0-.6,0-.6.1,0-.1.1-.2.2-.2-1.3-.2-3.1.1-4.5,0,1.3-.4,3-.4,4.5-.6,0,0,0-.1,0-.2,0-.2,0-.3.5-.3.2,0,.3,0,.3-.2,0-.1-.3,0-.4-.2h0s-.2,0-.2,0c-.5-.1-1.1-.1-1.7,0,0,0,.2.2.2.2-.4,0-.5,0-.9-.1.6-.2,1.2-.5,1.7-.7,0,0,.2-.3.3-.3-1.8-.2-3.9-.7-5.5.1.3-.2.5-.5.8-.6-.2,0-.3,0-.4-.1,1.3.2,3.4-.3,4-1-.6,0-.8,0-1-.2,0,0-.1,0-.2,0h.1c0,0-.1-.1-.2-.2.8,0,1.8,0,2.5-.3-.2,0-.4,0-.6,0h-.4c-.3,0-.6,0-.8-.1-.6.2-1.2.4-1.8.6.4-.4,1-.6,1.5-.7h0c.3-.1.8-.6,1.1-.7-.3-.2-.8-.3-1.2-.3h-.4,0c-.4,0-.9,0-1.3.1,0-.1.3-.2.5-.4,0-.2-.3-.1-.3-.3.2-.1.4-.3.5-.4-.7,0-1.6,0-2.2,0,1.2-.4,2.8,0,4-.1,0,0,0,0-.1,0h-.2c.4-.2.8-.2,1.3-.3,1-.8-2.3-1-3.4-1,.7-.3,1.4-.2,2.2,0,0-.1.3-.3.3-.4.5.4,1.2.3,2,0-.8,0-1.7,0-2.5-.1.4-.2.9-.3,1.5-.3,0,0,.1,0,.2-.1-.3,0-.6,0-.8-.2.4,0,.8-.2,1.2-.3-.2,0-.4,0-.4-.1-1.3-.3-3.1.1-4.5,0,1.4-.5,3.3-.5,4.9-.6,0,0,0-.1,0-.2h0c0,0,0-.1.2-.2.3-.3.8-.4,1.4-.3h0c-.4-.2-1-.3-1.6-.1-.5-.2-1.2-.2-1.9,0,0,0,.2.2.2.2-.4,0-.5,0-.9-.1.6-.2,1.2-.5,1.7-.7,0,0,.2-.3.3-.3-1.8-.2-3.9-.7-5.5.1.3-.2.5-.5.8-.6-.2,0-.3,0-.4-.2,1.3.2,3.4-.3,4-1-.8,0-.9,0-1.3-.5.8-.1,1.8,0,2.5-.3-.2,0-.4,0-.6,0h-.4c-.4,0-.8,0-1.1-.3.3-.2.8-.6,1.1-.8C3.8,0,2.7,0,1.8.2c0,0,.1-.1.2-.2h137.9c.5,0,.9.1,1,.2ZM5,21.4c-.5,0-.9.2-1.4.4h.1c.6,0,1.3,0,1.9-.3-.2,0-.4,0-.6,0h0ZM136.2,16h0c0,0-.1,0-.2,0,0,.2,0,.3-.3.5,0,0,.1,0,.2,0h0s0,0,.2,0c0-.3.3-.1.3-.5,0,0-.2,0-.2,0ZM131.9,16c0,0-.1.1-.2.1,0,0,.1,0,.2.1-.1,0-.2,0-.3,0h0c.2,0,.5.1.8.1,0,0,0-.1-.2-.3,0,0,0-.1,0-.2,0,0-.1,0-.2.1ZM135.8,10.4h0s-.1,0-.1,0h-.1c0,.3,0,.4-.1.4h0s.2,0,.2,0c.8,0,1.6-.1,2.4-.2h.2c-.8,0-1.6-.3-2.3-.3ZM129.5,8.9h0c-.1,0-.2.1-.3.2h0s0,0,0,0h0s0,0,0,0h0s0,0,0,0h0c.2,0,.4,0,.6-.1h0c0,0-.1,0-.3,0h-.2s0,0,0,0h0ZM134.5,8.2c-.2,0-.4,0-.7,0,0,0,0,0,0,0,0,.1-.2.1-.3.2,0,0,.2,0,.5,0,.1,0,.2,0,.3,0,0,0,0,0,0-.4h.2ZM134.6,7.4c-.1,0-.2.2-.5.1,0,0,0,0,0,0,0,0,.2,0,.3,0-.1,0-.3.1-.4.2,0,.1.1.2.3.3,0,0,0,0,0-.1.1-.1,0-.4.4-.4,0,0,0-.2,0-.2ZM131.9,5.8c0,0,.1.2.1.3-.2,0-.4,0-.5,0,.9.2,2.4.3,3.1,0-.9,0-1.9,0-2.7-.2ZM134.3,4.5c-.3,0-.7.1-1.1.2,0,0,0,0,0,0,0,0,0,.1,0,.2h.1s.3,0,.3,0c0,0,.1,0,.2.1.3,0,.6-.1.9-.2-.1.2-.3.3-.5.4,0,0,.1,0,.2,0h-.4c-.2.2-.3.3-.4.4.5,0,1,0,1.4-.1,0-.1,0-.3,0-.4,0,.1.2.2.2.3h0c.2-.3,0-.6-.5-.8h0s0,0,0,0c-.1,0-.3,0-.4,0h0c0,0,0,0,0,0ZM136.1,5.2h-.1c-.2.2-.4.2-.6.3.3.3.7.3,1,0,0,0-.2-.1-.3-.2ZM136.7,4.5c-.1.2-.2.4-.4.5.7-.2,1.4,0,2,0,0,0,0-.2,0-.3-.3,0-1-.2-1.7-.2ZM136,.6c0,.3,0,.5-.5.9,0,0,.2,0,.4-.1,0,0,0,0,.2,0,0-.3.3-.1.3-.5-.1,0-.3,0-.4-.1ZM131.9.6c-.1,0-.2.2-.3.2,0,.2,0,.4-.2.5.1,0,.3,0,.4,0,.1,0,.2,0,.2,0,0,0,.2,0,.3,0h0c0,0,.1,0,.2-.2,0-.3-.1,0-.3-.2,0,0,0-.1-.2-.3,0,0,0-.1,0-.2,0,0-.1,0-.2.1Z" fill="#ff596c" fill-rule="evenodd"/>
    </g>
  </g>
</svg>