<?xml version="1.0" encoding="UTF-8"?>
<svg xmlns="http://www.w3.org/2000/svg" baseProfile="tiny" version="1.2" viewBox="0 0 146 24">
  <!-- Generator: Adobe Illustrator 28.6.0, SVG Export Plug-In . SVG Version: 1.2.0 Build 709)  -->
  <g>
    <g id="Layer_1">
      <path id="Combined-Shape-Copy-20" d="M88.8.1h-.1c6.1-.1,12.2,0,18.1,0,.1,0,.3,0,.5,0,.4-.2.9,0,1.4,0,.4,0,.9,0,1.3,0,.4,0,.8,0,1.2,0,.4,0,.8.1,1.2,0,.9,0,1.8,0,2.7,0,.4,0,.9,0,1.3,0,.4,0,.8-.2,1.2,0,.5,0,.9,0,1.4,0,.4,0,.8,0,1.5,0,.3-.2.5,0,.8,0,.3,0,.6,0,.9,0,.2-.2.3,0,.5,0,.2,0,.3,0,.5,0,.5,0,.9,0,1.5,0,0-.1.2-.1.3-.1.2,0,.3,0,.4.1.6,0,1.4-.2,2,0,.7,0,1.4,0,2.1,0,.7,0,1.4.1,2.2.2.5,0,.9-.1,1.5.3,0,0-.2,0-.3,0-.1,0-.3,0-.4,0,.5,0,1,.2,1.4.4-.2,0-.5,0-.8.2.9.3,3-.2,3.3.8.2.1.3,0,.5.2,0,0-.2-.2-.3-.3.6,0,1.4,0,2-.2-.4.5-.9.6-1.2,1,.5,0,1.1,0,1.6-.2.7.2,1.4,0,2,.5-1.7-.2-3.7.2-5.3-.3,0,.1.1.2.1.3-.3,0-.6,0-.8,0,.2,0,.4.4.6.5-.5,0-.7,0-1.1-.2,0,0,.2,0,.3-.1-.1,0-.3-.1-.4-.2-.7.1-1.2-.2-1-.8.5.4.5.2,1,0,.2,0,.5-.2.7-.3,0,0,0,0-.1,0h0s0,0,0,0c0,0,0,0,0,0h0s0,0,0,0h0s0,0,0,0h0s0,0,0,0c0,0,0,0,0-.1h0s0,0,0,0h0s0,0-.1.1h0s0,0,0,0c-.2,0-.4,0-.7,0h-.1c0,.1.2.1.3.2-.6.2-1.3,0-1.8-.3,0,.1,0,.1-.3.3,0,.1.1.2.2.4.4-.2.6,0,1-.1-.2.2-.2.4-.4.5.3,0,.6.1.9.3-.4,0-.8,0-1.3,0h0c.6,0,1.2.2,1.7.5-1.3,0-2.9-.2-4.2.2.7.8,4,1.2,4.9.7-.2,0-.4,0-.6-.1,0,0-.1-.4,0-.3.7.4,3.2.9,3.9.9.2.3.1.3.7.6-.6,0-1.8.2-2.5,0,0,0,0,.2,0,.2-.8-.2-2.5-.4-3.1,0,.3,0,.7.2,1,.2-.2,0-.4,0-.5,0h-.1c0,0,0,.1,0,.1h0c0,0,0,0,0,0h0s0,0,0,0h0s0,0,0,0c.2.2.5.2.8.3h.1c.1.1.4.3.5.4.4-.8,2.6-.2,3.3.2.6,0,1.2-.2,1.5-.7-.3.4,1.2.7,2.7.9h.5c1.3.2,2.5.3,2.7.4-.9,0-1.9.2-2.9.2-.9,0-1.8-.4-2.7-.3,0,.6-.1.4-.3.7-.3-.5-.9-.5-1.4-.2,0-.1-.2-.2-.3-.2-.8,0-1.6,0-2.4,0,0,0-.2,0-.3,0-.6.6-1,.8-2.2.6.1-.8,1.1,0,1.7-.6-.1,0-.2,0-.4,0h-.3c-.9,0-1.8,0-1.7,1.1.8,0,2.1-.3,2.7.5-.7,0-2.6.4-3,0,0,0-.3.3-.3.3.4.2,1,.1,1.5.2-.7.5-2.1.1-2.9.1-.7,0-1.4.1-2,.2h0s0,0,0,0c0,0,.1,0,.2.1-.3,0-.4,0-.5,0h0s0,0,0,0h0s0,0,0,0h0c.7.3,1.3-.2,2-.2h.2c.9,0,2.5.4,3.3.9.4-.6,2.9-.2,3.7,0-.3.5-1.7.2-2.4.3.2,0,.5.2.7.3-.7,0-1.5-.3-2.1,0-.1,0-.2-.2-.4-.2-.3-.1-2,.2-2.5.2.3.5.9.5,1.5.5h.4c.5,0,1.1,0,1.4.3h0c0,0,0,0,0,0,0,0,0,0,0,0,0,0,0-.2,0-.3,1.3,0,2.7-.2,3.9,0,0,0,0,.1,0,.2h.1s.3,0,.3,0c.2,0,.6.3.8.4-.4,0-.9,0-1.3,0,0,0,0,.1,0,.2-.9-.1-1.7,0-2.5.4.9.4,4.8.8,4.4-.7.3.5.9.7,1.3.2-.1,0-.2-.2-.4-.3.8-.3,1.6-.1,2.4-.1,0-.1,0-.2,0-.3.5.1,1.1.3,1.7.2,0,0,.2.1.3.2l.2.2h.1c-2,.4-3.5,0-5.4,1.1.7.4,2.4.6,3.3.8,1,.2,2.2.1,3.2,0-.7.1-1.4.2-2.1.4.3,0,.5.2.8.3-.3.2-.5.5-.9.7.1.1.2.3.3.4-.5.5-1.2.2-1.7,0,.1-.1.2-.4.4-.5-.7-.2-1.6-.4-2.3,0,.1,0,.3,0,.3.4.2,0,.3,0,.5.1-.3.3-.8.6-1.2.6,0,0-.2-.3-.2-.4,0,0-.3.1-.4,0,0,0,0-.2-.1-.3,0,0-.3,0-.4,0,.3.3.1.5.5.8-.2,0-.4.2-.6.2,0,.1-.2.5-.2.6.8.3.9-.6,1.7-.8.7-.2,1.5.4,2.3,0,0,0,0-.2,0-.3.5-.2,1-.1,1.5,0,.1,0,0-.2,0-.3,0,.2.2.3.3.5-.2.1-.4,0-.5.1,0,0,0,.3,0,.3-.7.1-1.3.1-2,.2.2,0,.5.3.7.4-.4.1-.8,0-1.2,0h-.4c-.6-.2-1.1-.2-1.5,0,.5.1,1,0,1.4.3,1.2-.1,2.3-.3,3.4,0-.6.3-1.3,0-1.9.2-.4.1-.8.6-1.2.9.7.2,1.4,0,2.1,0,0,.1-.3.3-.4.4.1,0,.3,0,.4.1-.4.2-.9.2-1.3.2h-.4c-.7,0-1.4,0-1.9.6.1-.5-.2-.4.5-.8,0,0-.2,0-.3,0h-.2c-.6,0-1.3.1-1,.9-.3,0-.8.1-1.1.1,0,0-.1-.2-.2-.2-.1,0-.3,0-.4,0,0,0,0,0-.1,0-.4,0-.8.3-1.2.4.7,0,1.6-.2,2.3.2-.6.3-1.5,0-2.2.3h-.1c0,0,0,0,0,0,.5,0,1,.2,1.4.3.5,0,.9,0,1.4.2h0c.3-.1.5-.3.7-.6-.2.4.7.6,1.8.8h0c0,0,0-.2,0-.2.2,0,1.9-.2,2-.1.2.2.1.4,0,.5.4,0,.8,0,1.1.1H2c0,0,.2-.1.3-.2,0-.2-.3-.1-.3-.3.2-.1.4-.3.5-.4-.7,0-1.6,0-2.2,0,1.6-.6,3.6.4,4.9-.4.9-.6-.2-.9-1.4-1.1h-.3c-.6,0-1.2-.1-1.6,0,.7-.3,1.5-.2,2.3,0,0-.1.2-.3.3-.4-.5,0-.9,0-1.3-.2.7,0,1.5-.1,2.4-.2h0s0,0,0,0c.1-.2.4-.2.6-.3.2,0,.4,0,.7-.2,0,0,.2,0,.4,0,.3,0,.5-.2.2-.5-.2.4-.2.4-1.1.3-.4,0-.6,0-.6-.3-1.3.2-2.5.6-3.7,1,.6-.6,1.4-.7,2.2-.9h.5c.3-.1.7-.2,1-.3,0-.2.1-.2.5-.2.2,0,.3,0,.4-.2,0,0,0,0,0,0-1-.2-2.3-.2-3.4-.2,1.5-.3,3.3-.2,4.5-.7-1,0-2.1.2-3.1.2.3-.2.7-.3,1.3-.4h.1s-.2,0-.2,0c-.5,0-1,0-1.4-.2h-.2c1.2-.3,2.9-.7,4-.7-.5,0-.8-.3-1.2-.3.5-.3,1.1-.4,1.6-.5-1.1-.4-3-.1-4.4-.4.8-.5,2-.3,3.1-.2-.7-.2-1.4-.2-2.2-.4.4,0,.8-.2,1.3-.3-1.3-.5-3.5,0-5.1-.2,1.5-.5,3.4-.5,5.1-.6,0-.6.8-.9,1.7-.8-.4-.2-1-.3-1.7-.1-.5-.2-1.3-.2-1.9,0,0,0,.2.2.3.2-.4,0-.6,0-.9-.1.6-.2,1.3-.6,1.8-.8,0,0,.3-.3.3-.3C3.8,11.9,1.7,11.4,0,12.3c.3-.2.6-.5.8-.7-.2,0-.3,0-.5-.2,1.3.2,3.5-.3,4.1-1-.8,0-.9,0-1.3-.5.9-.1,1.8,0,2.6-.4-.2,0-.4,0-.6,0h-.4c-.4,0-.8,0-1.1-.3.4-.2.8-.7,1.2-.8-.8-.4-1.9-.4-2.9-.2,0-.1.3-.3.5-.4,0-.2-.3-.1-.3-.3.2-.1.4-.3.5-.4-.7,0-1.6,0-2.2,0,1.6-.6,3.6.4,4.9-.4.9-.6-.2-.9-1.4-1.1h-.3c-.6,0-1.2-.1-1.6,0,.7-.3,1.5-.2,2.3,0,0-.1.3-.3.3-.5.9.8,3.1-.4,4.3-.6-.2,0-3.3.2-3.3.4.1-.3.4-.3.7-.3.2,0,.4,0,.7-.2,0,0,.2,0,.4,0,.3,0,.5-.2.2-.5-.2.4-.2.4-1.1.3-.5,0-.7,0-.6-.4,0-.3.1-.3.5-.3.2,0,.3,0,.4-.2,0-.1-.3,0-.4-.2,0,0,.5-.4.6-.4.3,0,.7,0,1,0,.3-.1.1-.4.5-.5,1-.3,2.9-.3,4-.5,1-.2,2.1-.2,3.4-.3,3-.1,5.9-.4,8.9-.5,9.4-.1,18.9-.2,28.5-.5,11-.4,22.4-.2,33.3-.2.2,0,.4,0,.6,0,.6-.2,1.2,0,1.9,0ZM4.7,21.1h0c.4.2,1,.2,1.6,0-.4,0-.7,0-1.1,0h-.5ZM5.7,20.7h.6c.7-.1,1.4-.2,2.1-.2.1,0,.3,0,.4,0-.2,0-2.4.2-3.1.3ZM8,17.8h-.3s.1,0,.1,0c.5,0,1,0,1.4,0,.2,0,.3,0,.5,0h.2c-.6,0-1.3,0-1.9,0ZM138.4,15.7c-.1,0-.3.2-.6.2,0,0,0,0,0,0,0,0,.2,0,.3,0-.2.1-.4.3-.6.4,0,0,0,.1.1.4,0,.1-.2.1-.3.2,0,0,.2,0,.5,0,.1,0,.2,0,.3,0,0,0,0,0-.2-.6.1-.1,0-.4.4-.4,0,0,0-.2,0-.2ZM134.1,16.3h0c0,.1-.1.3,0,.4.1,0,.3,0,.4,0,.3-.2.5-.2.9,0,0,0,0-.1,0-.1-.1,0-.2,0-.3,0,0,0,0,0-.1,0,0,0,0,0,0,0-.1,0-.3,0-.4,0,0,0,0,0,0,.1,0,0-.1,0-.2,0h0ZM129.4,11.8c0,0-.2,0-.5.3.1,0,.1,0,.2.1.2,0,.4,0,.6,0,.2,0,.4,0,.6,0,0,0-.1-.2-.4-.4-.1,0-.3,0-.4,0ZM122.1,10.8c-.3,0-.5,0-.8,0-.3,0-.4,0-.7.1.3,0,.5,0,.8,0,.1,0,.2,0,.3,0,.1,0,.3,0,.4,0ZM129.9,9.6h-.3c-.1,0-.3,0-.8.1,0,0,.1,0,.5,0,.1,0,.2,0,.3.2,0,0,.2,0,.4,0,0,0,.2,0,.3-.2,0,0,0-.1-.1-.2,0,0,0,0-.1,0ZM133,6.3c-.1,0-.3,0-.5,0,0,0-.2.2-.2.3.2,0,.3.2.6,0,0,0,0,0,0,0h0s0,0,0,0h0s0,0,0,0h0c0,0,0,0-.1-.1h.2s0,0,0,0h0c0,0,0-.1,0-.1ZM130.3,1.9c0,.1.1.2.1.3.1.1,0,.2,0,.3.2,0,.4,0,.5,0,0-.2,0-.3-.1-.5-.1-.1-.3-.1-.4,0ZM129.3.8c-.1.1,0,.2-.2.3,0,.2,0,.3.3.4,0,0,.2,0,.6-.4,0-.1,0-.2-.1-.3-.3,0-.5,0-.6,0Z" fill="#e5013b" fill-rule="evenodd"/>
    </g>
  </g>
</svg>