<?xml version="1.0" encoding="UTF-8"?>
<svg xmlns="http://www.w3.org/2000/svg" baseProfile="tiny" version="1.2" viewBox="0 0 146 24">
  <!-- Generator: Adobe Illustrator 28.6.0, SVG Export Plug-In . SVG Version: 1.2.0 Build 709)  -->
  <g>
    <g id="Layer_1">
      <g>
        <path d="M6.3,21.1s0,0,0,0c0,0,0,0,0,0,0,0,0,0,0,0Z" fill="none"/>
        <path d="M6.7,18.4c.2,0,.4,0,.6-.2,0,0,0,0,0,0-.3,0-.5,0-.8,0,0,0,.1.1.2.2Z" fill="none"/>
        <path d="M7.7,16.3c.2,0,.4-.1.6-.1,0,0,0,0,0,0-.2,0-.4,0-.5-.1,0,0,0,0,0,0,0,.1,0,.2-.1.3Z" fill="none"/>
        <path d="M16.7.8c-.2,0,0-.2-.2-.3,0,0-.3,0-.6,0,0,.1,0,.2-.1.3.4.4.5.4.6.4.2-.1.3-.2.3-.4Z" fill="none"/>
        <path d="M130,1c0,0,0-.2,0-.3-.3,0-.5,0-.6,0,0,0,0,.2,0,.2.3,0,.5,0,.8,0Z" fill="none"/>
        <path d="M138,13.1c.9-.1,1.6.1,1.7.8,0,0,.2,0,.2,0,.1,0,.2-.1.3-.2-.1,0-.2-.2-.4-.3.8-.3,1.6-.1,2.4-.1,0,0,0-.1,0-.2-.4,0-.5.1-.9.1,0,0,.3-.2.3-.2-.6-.2-1.4-.2-1.9,0-.7-.2-1.3,0-1.7.1Z" fill="none"/>
        <path d="M57.1-.2s0,0,0,0c0,0,0,0-.1,0h.1Z" fill="none"/>
        <path d="M138.4,15.9c0,0,0-.2,0-.2-.1,0-.3.2-.6.2,0,0,0,0,0,0,0,0,.2,0,.3,0,0,0-.1,0-.2.1,0,0,.1,0,.2,0,0,0,.1-.1.3-.2Z" fill="none"/>
        <path d="M141.6,21.1s0,0,0,0c.2,0,.3,0,.5,0,0,0-.2,0-.3,0h-.3Z" fill="none"/>
        <path d="M5.8,21.1c-.2,0-.4,0-.6,0h-.5s0,0,0,0c.3.1.7.1,1.2,0,0,0,0,0-.1,0Z" fill="none"/>
        <path d="M139,17.9c-.1,0-.2,0-.3,0,.3,0,.6.1.9.2,0,0,.2-.1.3-.2-.3,0-.6,0-.9,0Z" fill="none"/>
        <path d="M137.7,16.8c.1,0,.3,0,.5,0,0,0,0,0,0-.1-.1,0-.3,0-.4,0Z" fill="none"/>
        <path d="M6.7,13.4c0,0,.2-.2.2-.3,0,0,0,.1,0,.2.3,0,.6,0,.9,0,0,0,0,0,0,0,0,0-.1,0-.2,0,0,0,0,0,0,0-.4-.1-.9-.2-1.4,0,0,0-.1,0-.2,0-.1,0-.2.2-.3.2.2.3.5.3.8.2,0,0,.2-.1.3-.2Z" fill="none"/>
        <path d="M7.2,16.8s-.3,0-.4,0c0,0,0,.2-.1.3-.1,0-.4-.1-.4,0,0,0,0,.1-.1.2.3,0,.6,0,.9-.1,0,0,0-.2.2-.3Z" fill="none"/>
        <path d="M5,18.6h-.4c.4,0,.9,0,1.3,0-.3,0-.6,0-.9,0Z" fill="none"/>
        <path d="M4.8,20.1c0,0-.2-.1-.2-.2-.4,0-.7.2-1.1.3.4,0,.9,0,1.3,0Z" fill="none"/>
        <path d="M142.4,15.3c-.5,0-1.2-.2-1.8-.3,0,0,.2,0,.2,0-.4,0-.8-.2-1.3-.3,1.3-.5,3.5,0,5.1-.2-1.2-.4-2.7-.5-4.1-.6,1.2-.3,2.5-.2,3.9-.4h-.1c0,0-.2-.2-.2-.2-.1,0-.2-.1-.3-.2-.6.1-1.1,0-1.7-.2,0,0,0,0,0,0-.6-.2-1.3-.6-1.8-.8,0,0-.3-.3-.3-.3,1.9-.3,4-.7,5.7.1-.3-.2-.6-.5-.8-.7.2,0,.3,0,.5-.2-1.3.2-3.5-.3-4.1-1,.8,0,.9,0,1.3-.5-.9-.1-1.8,0-2.6-.4.2,0,.4,0,.6,0h.4c.4,0,.8,0,1.1-.3-.3-.1-.6-.4-.9-.7.2,0,.4,0,.6,0,1,0,2-.1,2.9-.2-.1-.1-1.3-.2-2.6-.4.6,0,1.2,0,1.7.1,0-.1-.3-.3-.5-.4,0-.2.3-.1.3-.3-.2-.1-.4-.3-.5-.4.7,0,1.6,0,2.2,0-1.6-.6-3.6.4-4.9-.4-.9-.6.2-.9,1.4-1.1h.3c.6,0,1.2-.1,1.6,0-.7-.3-1.5-.2-2.3,0,0-.1-.3-.3-.3-.5-.9.8-3.1-.4-4.3-.6.2,0,3.3.2,3.3.4-.1-.3-.4-.3-.7-.3-.2,0-.4,0-.7-.2,0,0-.2,0-.4,0-.3,0-.5-.2-.2-.5.2.4.2.4,1.1.3.5,0,.7,0,.6-.4,0,0,0,0,0,0,.3,0,.6,0,.9,0-.3-.2-.6-.3-1-.3,0,0-.2,0-.3,0-.2,0-.3,0-.4-.2,0-.1.3,0,.4-.2,0,0-.5-.4-.6-.4-.2,0-.5,0-.7,0,0,0,.2-.2.2-.2-.2,0-.3.1-.5.2-.2-.1,0-.3-.4-.4-1-.3-2.9-.3-4-.5,0,0,0,0,0,0-.4-.2-.7-.3-1.1-.3.1,0,.3,0,.4,0,0,0,.2,0,.3,0-.6-.4-1-.3-1.5-.3-.7,0-1.4-.2-2.2-.2-.7,0-1.4,0-2.1,0-.6-.3-1.4,0-2,0-.1-.1-.3-.1-.4-.1-.1,0-.3,0-.3.1-.6,0-1,0-1.5,0-.2,0-.3,0-.5,0-.2,0-.4-.2-.5,0-.3,0-.6,0-.9,0-.3,0-.5-.2-.8,0-.7-.2-1.1,0-1.5,0-.5,0-.9,0-1.4,0-.4-.2-.8,0-1.2,0-.4,0-.9,0-1.3,0-.9,0-1.8,0-2.7,0-.4,0-.8,0-1.2,0-.4,0-.8,0-1.2,0-.4,0-.9,0-1.3,0-.5,0-.9-.2-1.4,0-.1,0-.3,0-.5,0-4.4,0-8.9,0-13.3,0-.2,0-.5,0-.7,0-11-.4-22.4-.2-33.3-.2-.2,0-.4,0-.6,0-.6-.2-1.2,0-1.8,0,0,0,0,0,0,0h-.1s0,0,.1,0c-6.1-.1-12.2,0-18.1,0-.1,0-.3,0-.5,0-.4-.2-.9,0-1.4,0-.4,0-.9,0-1.3,0-.4,0-.8,0-1.2,0-.4,0-.8.1-1.2,0-.9,0-1.8,0-2.7,0-.4,0-.9,0-1.3,0-.4,0-.8-.2-1.2,0-.5,0-.9,0-1.4,0-.4,0-.8,0-1.5,0-.3-.2-.5,0-.8,0-.3,0-.6,0-.9,0-.2-.2-.3,0-.5,0-.2,0-.3,0-.5,0-.5,0-.9,0-1.5,0,0-.1-.2-.1-.3-.1-.2,0-.3,0-.4.1-.6,0-1.4-.2-2,0-.7,0-1.4,0-2.1,0-.7,0-1.4.1-2.2.2-.5,0-.9-.1-1.5.3,0,0,.2,0,.3,0,.1,0,.3,0,.4,0-.5,0-1,.2-1.4.4.2,0,.5,0,.8.2-.7.3-2.1,0-2.9.4-.7,0-1.3.1-1.7.3,0,0,0,0,0,0-.3,0-.7-.1-.9-.2.2.2.4.4.6.6,0,0,0,.1-.2.2-.3.1-.7,0-1,0,0,0-.3.1-.4.3-.5,0-1,0-1.4.4.5,0,1.1,0,1.7,0,0,0-.2.1-.3.2-.4,0-.5,0-.5.3,0,.4.2.3.6.4.9.1.9.1,1.1-.3.3.3,0,.4-.2.5-.2,0-.3,0-.4,0-.2.1-.5.1-.7.2-.3,0-.6,0-.7.3,0-.1,3.1-.4,3.3-.4-1.2.2-3.4,1.4-4.3.6,0,.1-.3.3-.3.5-.8-.2-1.6-.3-2.3,0,.4,0,1,0,1.6,0h.3c1.2.2,2.4.5,1.4,1.1-1.3.8-3.3-.1-4.9.4.6,0,1.5,0,2.2,0-.1.2-.3.3-.5.4,0,.2.2.2.3.2-.7,0-1.2.2-1.3.2.3,0,.7,0,1,0,0,0-.1,0-.2.2.2,0,.4,0,.7-.1.4,0,.9,0,1.3,0,0,0,0,0,0,0,.3,0,.6.1.8.3-.3.2-.8.7-1.2.8.3.2.7.3,1.1.3h.4c.2,0,.4,0,.6,0-.8.3-1.8.3-2.6.4.4.4.5.6,1.3.5-.6.7-2.8,1.2-4.1,1,.2.1.2,0,.5.2-.2.2-.5.5-.8.7,1.7-.9,3.8-.4,5.7-.1,0,0-.3.3-.3.3-.3.1-.7.3-1.1.5-.2,0-.4,0-.7,0,0-.1,0-.2,0-.3-.5.1-1.1.3-1.7.2,0,0-.2.1-.3.2l-.2.2h-.1c1.8.3,3.2,0,4.9.8,0,0,0,0,0,0-1.7.1-3.6.1-5.1.6,1.3.2,2.9-.1,4.2,0-.7.1-1.4.3-1.9.3-1,.2-2.2.1-3.2,0,.7.1,1.4.2,2.1.4-.3,0-.5.2-.8.3.3.2.5.5.9.7-.1.1-.2.3-.3.4.5.5,1.2.2,1.7,0-.1-.1-.2-.4-.4-.5.7-.2,1.6-.4,2.3,0-.1,0-.3,0-.3.4-.2,0-.3,0-.5.1.2.3.5.4.8.5-.6,0-1.1.2-1.6.3h.2c0,.1.1.1.2.1-.4,0-.7,0-1.1-.1,0,0,0-.2,0-.3-.5-.2-1-.1-1.5,0-.1,0,0-.2,0-.3,0,.2-.2.3-.3.5.2.1.4,0,.5.1,0,0,0,.3,0,.3.7.1,1.3.1,2,.2-.2,0-.5.3-.7.4.2,0,.4,0,.6,0-.3,0-.6,0-.9.1.7,0,1.5,0,2.3,0,0,0-.2,0-.3,0-1.2-.1-2.3-.3-3.4,0,.6.3,1.3,0,1.9.2.3,0,.5.3.8.5h-.1c-.5.1-1,.2-1.4.4,0,0-.1,0-.2,0,0,0,0,0,0,0-.3.1-.5.3-.7.5.3,0,.6-.2.9-.3,0,0,.1.1.2.2-.1,0-.3,0-.4.1.3.1.5.2.8.2,0,0-.2,0-.3,0,.4,0,.9.2,1.3.2,0,.1-.2.3-.3.4-.8-.2-1.6-.3-2.3,0,.4,0,1,0,1.6,0h.3c1.2.2,2.4.5,1.4,1.1-1.3.8-3.3-.1-4.9.4.6,0,1.5,0,2.2,0-.1.2-.3.3-.5.4,0,.2.2.2.3.2,0,0-.2,0-.3,0h.3s0,0,0,0c0,0-.2.1-.3.2h141.8c-.3,0-.7,0-1.1-.1,0,0,0,0,0-.1h1c0,0-.2-.1-.3-.2,0-.2.3-.1.3-.3-.2-.1-.4-.3-.5-.4.7,0,1.6,0,2.2,0-1.6-.6-3.6.4-4.9-.4-.9-.6.2-.9,1.4-1.1h.3c.6,0,1.2-.1,1.6,0-.4-.2-.8-.2-1.3-.2.2,0,.4,0,.5-.2-.1,0-.3,0-.4-.1,0,0,.3-.3.4-.4-.7,0-1.4.1-2.1,0,.2-.2.5-.4.7-.6.7.2,1.4.4,2,.6-.5-.5-1.1-.7-1.8-.8,0,0,.2,0,.2-.1.6-.2,1.3,0,1.9-.2-1.1-.4-2.3-.2-3.4,0-.2-.1-.5-.1-.8-.2,0,0-.2,0-.3,0,0,0-.2,0-.2,0,.4-.2.9-.2,1.4-.1h.4c.4.1.9.2,1.2,0-.2,0-.3-.2-.5-.3.3,0,.5,0,.8,0-.2,0-.5,0-.8-.1.6,0,1.2-.1,1.8-.2,0,0,0-.2,0-.3.1-.1.4,0,.5-.1,0-.2-.2-.3-.3-.5,0,.1,0,.3,0,.3-.5-.2-1-.2-1.5,0,0,.1,0,.2,0,.3-.5.2-.9.2-1.3,0-.3-.1-.6-.2-1.1-.3h-.1s.2,0,.2,0c.5,0,1,0,1.4-.2h.2c-.3-.2-.6-.2-.9-.3,0,0,.1-.1.2-.2-.2,0-.3,0-.5-.1,0-.3-.2-.3-.3-.4.7-.4,1.6-.2,2.3,0-.2.1-.2.4-.4.5.5.2,1.2.5,1.7,0-.1-.1-.2-.3-.3-.4.4-.2.6-.5.9-.7-.2,0-.5-.2-.8-.3.7-.2,1.4-.3,2.1-.4-1,.1-2.2.2-3.2,0ZM137.9,16c0,0,.1,0,.2-.1,0,0-.2,0-.3,0,0,0,0,0,0,0,.3,0,.4,0,.6-.2,0,0,0,.2,0,.2-.2,0-.3,0-.3.2,0,0-.1,0-.2,0ZM141.5,12.9s-.2.2-.3.2c.4,0,.5,0,.9-.1,0,0,0,.1,0,.2-.8,0-1.6-.2-2.4.1.1,0,.2.2.4.3,0,.1-.2.2-.3.2,0,0-.2,0-.2,0,0-.6-.8-.9-1.7-.8.4-.2,1-.3,1.7-.1.5-.2,1.3-.2,1.9,0ZM129.9.8c0,0,0,.2,0,.3-.3,0-.5,0-.8,0,0,0,0-.2,0-.2,0,0,.3,0,.6,0ZM8.3,16.1s0,0,0,0c-.2,0-.4,0-.6.1,0,0,0-.2.1-.3,0,0,0,0,0,0,.2,0,.4,0,.5.1ZM7.3,18.2s0,0,0,0c-.2,0-.4.1-.6.2,0,0-.1-.1-.2-.2.3,0,.5,0,.8,0ZM6.3,21.1s0,0,0,0c0,0,0,0,0,0,0,0,0,0,0,0ZM16,.5c.3,0,.5,0,.6,0,.1.1,0,.2.2.3,0,.2,0,.3-.3.4,0,0-.2,0-.6-.4,0-.1,0-.2.1-.3ZM5.7,13.4c.1,0,.2-.1.3-.2,0,0,.2,0,.2,0,.5-.1,1.1,0,1.4,0,0,0,0,0,0,0,0,0,.1,0,.2,0,0,0,0,0,0,0-.3,0-.7,0-.9,0,0,0,0-.1,0-.2,0,.1-.1.2-.2.3-.1,0-.2.1-.3.2-.3.1-.6,0-.8-.2ZM6.2,17c0,0,.3.1.4,0,0,0,0-.2.1-.3,0,0,.3,0,.4,0,0,.1-.1.2-.2.3-.3,0-.6,0-.9.1,0,0,0-.2.1-.2ZM5,18.6c.3,0,.6,0,.9,0-.4,0-.9,0-1.3.1h.4ZM4.6,19.9c0,0,.2.1.2.2-.4.1-.9.1-1.3,0,.3-.1.7-.2,1.1-.3ZM4.8,21.1h0c0,0,.5,0,.5,0,.2,0,.4,0,.6,0,0,0,0,0,.1,0-.5,0-.9,0-1.2,0ZM141.7,21.2s0,0,0,0h.3c0,0,.2,0,.3,0-.2,0-.3,0-.5,0ZM138.7,18c.1,0,.2,0,.3,0,.3,0,.6,0,.9,0-.1,0-.2.1-.3.2-.3,0-.6,0-.9-.2ZM137.7,16.8c.1,0,.3,0,.4,0,0,0,0,0,0,.1-.2,0-.3,0-.5,0Z" fill="#e5013b"/>
      </g>
    </g>
  </g>
</svg>