<?xml version="1.0" encoding="UTF-8"?>
<svg width="146px" height="24px" class="cls-history-status__svg" viewBox="0 0 142 24" preserveAspectRatio="none" version="1.1" xmlns="http://www.w3.org/2000/svg" xmlns:xlink="http://www.w3.org/1999/xlink">
    <g stroke="none" stroke-width="1" fill="none" fill-rule="evenodd">
        <g fill="#E5013B" transform="translate(-339.000000, -1338.000000)">
            <path d="M425.390184,1338.10064 L425.281365,1338.0888 C431.179793,1337.98038 437.124952,1338.07254 442.90989,1338.10587 C443.054868,1338.10587 443.202581,1338.10848 443.347559,1338.10848 C443.777022,1337.90213 444.220163,1338.04318 444.663303,1338.10064 C445.081824,1338.15549 445.500345,1338.14243 445.921602,1338.12154 C446.28815,1338.10325 446.673846,1338.04057 447.040394,1338.07191 C447.453445,1338.10848 447.814522,1338.19206 448.235778,1338.16594 C449.102911,1338.11631 449.972778,1338.179 450.839911,1338.21296 C451.269374,1338.22863 451.696101,1338.26781 452.125564,1338.23646 C452.549556,1338.20251 452.899692,1338.05624 453.301801,1338.25997 C453.753147,1338.23646 454.201758,1338.29393 454.653105,1338.29132 C455.077097,1338.29132 455.460057,1338.19729 456.124768,1338.36706 C456.376427,1338.15811 456.622616,1338.35923 456.89616,1338.39841 C457.199793,1338.44281 457.508897,1338.37229 457.81253,1338.3749 C457.960243,1338.20773 458.151724,1338.39057 458.324056,1338.4193 C458.485446,1338.44803 458.644102,1338.41669 458.805492,1338.39318 C459.256839,1338.33311 459.64527,1338.32527 460.24433,1338.37751 C460.323658,1338.23646 460.449487,1338.2443 460.583524,1338.26781 C460.733972,1338.28087 460.898098,1338.24169 461.007516,1338.38274 C461.590163,1338.47415 462.369762,1338.179 462.908642,1338.46893 C463.597971,1338.51333 464.2873,1338.4402 464.976629,1338.47154 C465.6769,1338.50289 466.3717,1338.60737 467.069236,1338.6805 C467.517847,1338.70923 467.980135,1338.54207 468.527222,1338.98871 C468.436952,1338.98088 468.346683,1338.9861 468.253678,1338.98088 C468.125113,1338.97565 467.98287,1339.01222 467.85157,1339.01745 C468.311122,1339.0514 468.789823,1339.17416 469.186461,1339.40663 C468.951214,1339.41185 468.661258,1339.45103 468.382244,1339.64171 C469.230228,1339.98126 471.254448,1339.48238 471.593642,1340.40963 C471.83436,1340.51672 471.932836,1340.46448 472.110639,1340.60291 C472.050459,1340.51672 471.938307,1340.38612 471.867185,1340.26597 C472.485393,1340.33649 473.229431,1340.28948 473.776518,1340.01783 C473.420911,1340.48537 472.920327,1340.63948 472.65499,1341.06523 C473.180193,1341.13837 473.740957,1341.12531 474.167685,1340.89545 C474.813247,1341.14098 475.570962,1340.96859 476.082488,1341.38389 C474.42208,1341.19061 472.49907,1341.60852 470.928932,1341.11747 C470.980905,1341.21934 471.030143,1341.32382 471.07391,1341.43091 C470.781218,1341.41524 470.532294,1341.46748 470.28337,1341.51188 C470.433818,1341.59808 470.712833,1341.92196 470.871488,1342.01599 C470.368168,1342.10741 470.204042,1342.05256 469.771844,1341.80965 C469.832023,1341.72606 469.985207,1341.76002 470.03171,1341.68949 C469.925028,1341.66337 469.692516,1341.5589 469.65422,1341.49621 C469.000451,1341.62158 468.488925,1341.25591 468.661258,1340.6865 C469.104398,1341.08352 469.112604,1340.91374 469.591305,1340.75441 C469.804669,1340.72568 470.119244,1340.57941 470.294311,1340.49582 C470.259745,1340.46115 470.224253,1340.42845 470.187897,1340.3978 L470.147,1340.367 L470.109781,1340.36426 C470.08,1340.35988 470.049,1340.35131 470.018,1340.3426 L470.003,1340.342 L470.020428,1340.32064 L470.038,1340.288 L469.959912,1340.23913 L469.954,1340.237 L469.963156,1340.18383 C469.969031,1340.13806 469.972781,1340.09657 469.983406,1340.06046 L469.989,1340.047 L469.982463,1340.04022 L469.936,1339.98566 C469.918857,1340.04318 469.882327,1340.07405 469.803813,1340.15442 L469.795,1340.163 L469.71427,1340.13368 C469.50306,1340.06911 469.276642,1340.06419 469.042979,1340.12948 L468.901976,1340.17716 C468.948478,1340.25813 469.096192,1340.23724 469.145429,1340.3391 C468.524486,1340.51411 467.906278,1340.3809 467.353721,1340.06223 C467.266187,1340.20067 467.266187,1340.20328 467.102061,1340.36261 C467.178653,1340.47493 467.247039,1340.6003 467.277129,1340.72045 C467.684708,1340.51933 467.85157,1340.65254 468.20444,1340.57679 C468.037076,1340.78155 467.980823,1340.96297 467.82536,1341.11563 C468.146964,1341.15927 468.448991,1341.23257 468.705954,1341.38389 C468.301807,1341.34977 467.886375,1341.3347 467.464327,1341.33031 L467.424842,1341.34733 C467.993812,1341.34471 468.595607,1341.52755 469.041483,1341.81226 C467.73121,1341.83315 466.243135,1341.61114 464.987571,1342.04211 C465.704255,1342.891 468.839061,1343.22272 469.711664,1342.69772 C469.509242,1342.62719 469.315026,1342.64548 469.109869,1342.59585 C469.11534,1342.60891 468.98951,1342.2354 469.02507,1342.26413 C469.708929,1342.67943 472.096962,1343.16004 472.816381,1343.12869 C473.048893,1343.43429 472.947682,1343.47347 473.530329,1343.68504 C472.903915,1343.73467 471.790593,1343.89922 471.117677,1343.75295 C471.027407,1343.8496 471.147767,1343.90706 471.027407,1344.00109 C470.256015,1343.76863 468.64211,1343.57273 467.974664,1344.09773 C468.270091,1344.15259 468.639374,1344.31975 468.912918,1344.33281 C468.732379,1344.32811 468.555779,1344.36384 468.388437,1344.40221 L468.245,1344.435 C468.219072,1344.4764 468.204384,1344.5114 468.202048,1344.55093 L468.206,1344.604 L468.221,1344.615 L468.242606,1344.6161 C468.258431,1344.61811 468.260845,1344.62234 468.256332,1344.62973 L468.25,1344.637 L468.283607,1344.66283 C468.518876,1344.81772 468.802236,1344.87252 469.04453,1344.917 L469.161842,1344.93879 C469.271259,1345.05894 469.533861,1345.16864 469.62413,1345.28618 C469.996149,1344.48431 472.135258,1345.05633 472.849206,1345.52648 C473.393557,1345.47163 473.97894,1345.30185 474.263425,1344.81864 C474.003909,1345.25799 475.409753,1345.54141 476.885782,1345.74745 L477.329101,1345.80702 C478.582098,1345.96967 479.770553,1346.0821 479.91483,1346.19254 C478.99846,1346.26567 478.030116,1346.39888 477.100069,1346.37276 C476.211053,1346.34664 475.324773,1345.92873 474.476789,1346.03843 C474.54791,1346.6862 474.337282,1346.39105 474.148537,1346.72277 C473.8832,1346.18731 473.262256,1346.26567 472.745259,1346.52426 C472.666351,1346.41918 472.567622,1346.34439 472.454146,1346.29173 C471.670524,1346.34653 470.880126,1346.38848 470.108833,1346.37276 C470.022051,1346.37091 469.935287,1346.3671 469.84856,1346.36165 C469.247464,1346.95167 468.842458,1347.19984 467.69565,1346.9918 C467.816009,1346.20821 468.811707,1346.9474 469.367,1346.37799 C469.248324,1346.37377 469.125751,1346.36712 469.001883,1346.36065 L468.75319,1346.34874 C467.882113,1346.31335 467.032518,1346.37266 467.09659,1347.42539 C467.88713,1347.44367 469.175519,1347.12501 469.676103,1347.95823 C468.986774,1348.0157 467.15677,1348.38398 466.77928,1347.96868 C466.74919,1348.00264 466.511207,1348.25077 466.481118,1348.26645 C466.902374,1348.42578 467.495963,1348.40488 467.933633,1348.43884 C467.279864,1348.89854 465.843762,1348.54854 465.110666,1348.5616 C464.465103,1348.57466 463.701917,1348.6922 463.193127,1348.80451 L463.195,1348.804 L463.2405,1348.81429 C463.307125,1348.83599 463.3705,1348.86972 463.43,1348.9176 C463.154,1348.96694 463.014889,1348.98048 462.920815,1348.98145 L462.912,1348.981 L462.882622,1348.98528 L462.860038,1348.98824 L462.860038,1348.98824 L462.83,1348.991 L462.788283,1349.06049 C463.482855,1349.25682 464.083187,1348.83861 464.778909,1348.75347 L464.971158,1348.73921 C465.835555,1348.71832 467.402959,1349.19108 468.133319,1349.67691 C468.48619,1349.11272 470.923461,1349.51236 471.700324,1349.60378 C471.440458,1350.09222 470.034445,1349.84408 469.347851,1349.89632 C469.520184,1349.96684 469.812875,1350.12356 469.998885,1350.18625 C469.342381,1350.14445 468.540899,1349.85975 467.919955,1350.25677 C467.802332,1350.20975 467.687444,1350.08699 467.578026,1350.05042 C467.260716,1349.94594 465.597573,1350.27767 465.121607,1350.29073 C465.422505,1350.80481 465.972643,1350.82564 466.549808,1350.79329 L466.897571,1350.77102 C467.4284,1350.738 467.944593,1350.73425 468.274988,1351.09874 L468.35,1351.194 L468.341512,1351.18249 C468.34986,1351.1822 468.35821,1351.18193 468.366563,1351.18166 C468.395665,1351.08184 468.412358,1350.97777 468.447894,1350.84446 C469.697987,1350.81051 471.041085,1350.64857 472.2775,1350.89148 C472.279375,1350.91922 472.277075,1351.01134 472.271372,1351.12835 L472.379326,1351.12686 L472.665693,1351.09521 C472.824082,1351.17357 473.2012,1351.37208 473.465183,1351.51574 C473.041849,1351.56398 472.632715,1351.59396 472.233907,1351.61484 C472.226145,1351.68998 472.216663,1351.75451 472.206379,1351.79783 C471.377543,1351.6594 470.548707,1351.80567 469.796463,1352.15567 C470.655389,1352.56053 474.493201,1352.98106 474.069209,1351.40604 C474.400197,1351.93366 474.971902,1352.0956 475.324773,1351.60455 C475.207149,1351.52358 475.089526,1351.43738 474.974637,1351.35119 C475.707734,1351.05603 476.501009,1351.23104 477.280608,1351.21014 C477.302491,1351.10827 477.318904,1351.00379 477.324375,1350.89932 C477.855049,1351.01685 478.3994,1351.21798 478.954693,1351.09521 C479.012137,1351.13439 479.109245,1351.20361 479.215927,1351.28099 L479.43314,1351.44015 L479.534605,1351.51574 C477.622537,1351.81612 476.109842,1351.40865 474.318134,1352.50307 C474.971902,1352.89486 476.689754,1353.12472 477.545945,1353.28144 C478.517023,1353.46427 479.72882,1353.38853 480.702635,1353.2527 C480.029718,1353.38853 479.340389,1353.4486 478.692091,1353.67846 C478.935545,1353.7098 479.203617,1353.87697 479.430658,1353.92921 C479.135231,1354.13033 478.951957,1354.46466 478.59088,1354.6266 C478.703033,1354.74675 478.804244,1354.92437 478.930074,1355.03146 C478.470521,1355.49378 477.778456,1355.2143 477.264195,1355.03407 C477.390025,1354.90086 477.463882,1354.66839 477.617066,1354.52212 C476.897647,1354.31578 476.025044,1354.15645 475.349392,1354.54041 C475.486163,1354.62399 475.598316,1354.63966 475.666702,1354.91131 C475.847241,1354.94526 476.000425,1354.99228 476.167286,1355.03929 C475.874595,1355.3893 475.431455,1355.62176 474.988315,1355.65311 C474.917193,1355.57475 474.821453,1355.35012 474.783157,1355.26915 C474.728449,1355.24564 474.463111,1355.38669 474.359165,1355.36318 C474.271631,1355.27698 474.312663,1355.13333 474.2306,1355.0628 C474.167685,1355.0837 473.902348,1355.08892 473.855845,1355.07847 C474.10477,1355.40497 473.992617,1355.61654 474.386519,1355.8699 C474.214187,1355.92737 474.000823,1356.02923 473.82302,1356.06058 C473.765576,1356.19901 473.664365,1356.54902 473.628804,1356.6979 C474.441228,1357.01395 474.526026,1356.11804 475.259123,1355.92998 C475.953923,1355.75236 476.725315,1356.31394 477.524061,1355.8908 C477.48303,1355.79677 477.461146,1355.70012 477.455675,1355.59826 C477.942582,1355.44154 478.459579,1355.47549 478.93828,1355.68706 C479.036756,1355.60609 478.951957,1355.4546 478.979312,1355.35012 C479.050433,1355.53818 479.18994,1355.60348 479.230971,1355.82027 C479.069581,1355.92737 478.869894,1355.85945 478.724916,1355.96132 C478.724916,1355.98483 478.817921,1356.21991 478.815186,1356.22252 C478.180565,1356.33745 477.507649,1356.36357 476.859351,1356.47066 C477.083656,1356.56208 477.318904,1356.76842 477.556886,1356.86506 C477.191466,1356.98425 476.779389,1356.94123 476.362982,1356.87386 L475.946699,1356.80349 C475.393912,1356.71245 474.858511,1356.65985 474.440827,1356.97248 C474.921909,1357.08311 475.435053,1357.04645 475.847819,1357.2383 C476.968509,1357.11828 478.09877,1356.94416 479.187205,1357.33261 C478.629176,1357.59642 477.882403,1357.31955 477.316168,1357.51283 C476.933208,1357.64343 476.50648,1358.08486 476.156345,1358.36695 C476.812849,1358.54718 477.515855,1358.46359 478.194242,1358.41396 C478.142269,1358.53412 477.920699,1358.73263 477.841371,1358.8136 C477.983614,1358.84494 478.128592,1358.8789 478.27357,1358.91546 C477.88295,1359.0983 477.439051,1359.12404 476.988668,1359.12649 L476.602128,1359.12602 C475.894564,1359.12615 475.204004,1359.16321 474.712036,1359.75652 C474.810511,1359.23412 474.545174,1359.32554 475.171589,1358.97032 C475.079952,1358.97032 474.983314,1358.96913 474.885057,1358.969 L474.687388,1358.9708 C474.060946,1358.98512 473.460005,1359.10135 473.743693,1359.88712 C473.470149,1359.93936 472.961359,1360.0151 472.698757,1359.99421 C472.636278,1359.89851 472.589902,1359.82661 472.549389,1359.77609 C472.407332,1359.78864 472.261336,1359.79858 472.116842,1359.80489 C472.084194,1359.82288 472.046128,1359.84482 472.003957,1359.86883 C471.593642,1359.96287 471.186063,1360.17444 470.789425,1360.29197 C471.514315,1360.23451 472.378711,1360.05167 472.994184,1360.49832 C472.379493,1360.80877 471.54781,1360.41204 470.891169,1360.81805 L470.785,1360.895 L470.788496,1360.89334 C471.23796,1360.92488 471.739273,1361.04773 472.158224,1361.19985 C472.596978,1361.14858 473.066161,1361.24458 473.542638,1361.37627 L473.584824,1361.36181 C473.863554,1361.25253 474.108251,1361.08221 474.263425,1360.81864 C474.056066,1361.16969 474.911938,1361.42119 476.017298,1361.61321 L475.984114,1361.55897 L475.90742,1361.45691 C476.066075,1361.40467 477.729219,1361.21661 477.827694,1361.33676 C477.991106,1361.534 477.931141,1361.70152 477.782948,1361.86471 C478.185196,1361.91431 478.567732,1361.95917 478.895456,1362.00098 L340.981471,1362.00031 C341.068458,1361.93618 341.168994,1361.87625 341.258937,1361.81119 C341.285335,1361.62313 340.934615,1361.66753 340.968556,1361.46902 C341.153344,1361.35148 341.356987,1361.19738 341.470123,1361.03805 C340.768683,1361.01193 339.901312,1361.09028 339.313008,1361.06939 C340.832793,1360.51304 342.827747,1361.46641 344.087321,1360.66192 C345.008041,1360.07225 343.907202,1359.74098 342.699576,1359.58883 L342.419869,1359.55686 C341.813506,1359.49434 341.21727,1359.47507 340.870505,1359.48914 C341.534233,1359.20705 342.314867,1359.29847 343.080416,1359.4578 C343.140288,1359.34649 343.279151,1359.19689 343.367198,1359.06994 C342.922826,1359.03527 342.494174,1358.97437 342.092367,1358.87628 C342.806458,1358.82063 343.593144,1358.74585 344.39901,1358.67252 L344.393,1358.685 L344.41396,1358.64473 C344.536418,1358.44732 344.78038,1358.40837 345.045201,1358.39212 C345.248845,1358.36077 345.452488,1358.3242 345.693844,1358.21973 C345.784352,1358.20928 345.882403,1358.19883 346.086047,1358.15704 C346.331173,1358.08129 346.557444,1357.9951 346.236894,1357.70255 C346.082275,1358.1048 346.067191,1358.1048 345.211133,1358.00032 C344.799612,1357.9351 344.594497,1358.01061 344.595789,1357.67944 C343.309292,1357.87428 342.13224,1358.30769 341.01381,1358.68561 C341.595217,1358.12794 342.371081,1357.93972 343.17438,1357.79194 L343.658316,1357.70549 C343.981353,1357.64759 344.303435,1357.58562 344.613873,1357.49854 C344.649403,1357.32521 344.749093,1357.28892 345.064057,1357.25068 C345.214904,1357.22456 345.339353,1357.17755 345.411005,1357.07829 C345.39341,1357.05007 345.3674,1357.03114 345.336884,1357.01721 C344.372457,1356.85272 343.069697,1356.83111 342.050884,1356.83111 C343.472619,1356.49155 345.226218,1356.64305 346.429224,1356.14677 C345.42609,1356.1964 344.385245,1356.34789 343.408509,1356.32177 C343.698726,1356.13644 344.134714,1356.01314 344.646779,1355.93281 L344.746,1355.918 L344.564205,1355.92072 C344.058541,1355.91755 343.589342,1355.86623 343.188219,1355.72225 L342.955967,1355.62438 C344.094864,1355.40236 345.810751,1355.04974 346.877994,1355.03407 C346.425453,1354.98183 346.055877,1354.78332 345.671217,1354.68668 C346.187868,1354.42548 346.719605,1354.24003 347.221172,1354.14339 C346.131301,1353.7307 344.324906,1354.01018 342.986137,1353.78032 C343.763,1353.29188 344.954693,1353.47211 345.957827,1353.56092 C345.275243,1353.40942 344.56249,1353.32584 343.853508,1353.16912 C344.219313,1353.0986 344.671854,1352.93143 345.071599,1352.87397 C343.785627,1352.38292 341.681309,1352.91576 340.089871,1352.7068 C341.522919,1352.20791 343.374568,1352.2262 345.037659,1352.07732 C345.082913,1351.44261 345.825835,1351.20492 346.670579,1351.30678 C346.278377,1351.11089 345.686302,1351.01424 345.052743,1351.18663 C344.551177,1350.97767 343.808254,1350.97245 343.182238,1351.14484 C343.167154,1351.1788 343.419823,1351.35119 343.427365,1351.36686 C343.035162,1351.35119 342.891857,1351.3329 342.529824,1351.23626 C343.106815,1351.03253 343.774313,1350.66946 344.245711,1350.45789 C344.272109,1350.41349 344.494609,1350.15751 344.517236,1350.13923 C342.684443,1349.88848 340.617836,1349.40527 339,1350.27767 C339.252669,1350.11572 339.539279,1349.78661 339.754236,1349.62467 C339.527965,1349.53325 339.475169,1349.61161 339.313008,1349.46534 C340.591438,1349.65863 342.737239,1349.17802 343.325543,1348.44406 C342.510968,1348.51458 342.443087,1348.36048 342.039571,1347.94256 C342.86923,1347.83547 343.804483,1347.89293 344.585117,1347.58472 C344.393815,1347.54625 344.191855,1347.53032 343.987803,1347.51944 L343.57945,1347.49924 C343.173387,1347.47541 342.781808,1347.42515 342.473256,1347.2086 C342.820205,1347.04927 343.280289,1346.5556 343.615924,1346.38321 C342.820205,1345.93918 341.737876,1345.97052 340.798853,1346.18731 C340.881819,1346.03843 341.089234,1345.93395 341.258937,1345.81119 C341.285335,1345.62313 340.934615,1345.66753 340.968556,1345.46902 C341.153344,1345.35148 341.356987,1345.19738 341.470123,1345.03805 C340.768683,1345.01193 339.901312,1345.09028 339.313008,1345.06939 C340.832793,1344.51304 342.827747,1345.46641 344.087321,1344.66192 C345.008041,1344.07225 343.907202,1343.74098 342.699576,1343.58883 L342.419869,1343.55686 C341.813506,1343.49434 341.21727,1343.47507 340.870505,1343.48914 C341.534233,1343.20705 342.314867,1343.29847 343.080416,1343.4578 C343.152069,1343.32459 343.336857,1343.13653 343.41228,1342.99809 C344.290965,1343.75818 346.432995,1342.59585 347.594519,1342.35816 C347.383332,1342.30331 344.426728,1342.59063 344.373931,1342.72645 C344.475753,1342.45742 344.747278,1342.4104 345.045201,1342.39212 C345.248845,1342.36077 345.452488,1342.3242 345.693844,1342.21973 C345.784352,1342.20928 345.882403,1342.19883 346.086047,1342.15704 C346.331173,1342.08129 346.557444,1341.9951 346.236894,1341.70255 C346.082275,1342.1048 346.067191,1342.1048 345.211133,1342.00032 C344.766134,1341.9298 344.56249,1342.02383 344.600202,1341.59024 C344.622829,1341.33688 344.698253,1341.29509 345.064057,1341.25068 C345.214904,1341.22456 345.339353,1341.17755 345.411005,1341.07829 C345.339353,1340.96337 345.128167,1341.00255 345.04143,1340.9059 C345.022574,1340.80665 345.482658,1340.54806 345.592022,1340.51672 C345.848462,1340.43314 346.282148,1340.58202 346.531046,1340.47754 C346.7988,1340.36522 346.644181,1340.12231 346.99113,1340.01 C347.971636,1339.69395 349.789345,1339.74619 350.894301,1339.55551 C351.904977,1339.38051 352.934509,1339.34133 354.171456,1339.29693 C357.075264,1339.18984 359.941361,1338.86073 362.856483,1338.82155 C371.963882,1338.7014 381.267382,1338.58647 390.589738,1338.27303 C401.326287,1337.91258 412.345674,1338.06146 422.972858,1338.10587 C423.172731,1338.10587 423.376374,1338.10848 423.576247,1338.10848 C424.168322,1337.90213 424.779253,1338.04318 425.390184,1338.10064 Z M343.532,1359.084 L343.628295,1359.13692 C344.020163,1359.31906 344.563561,1359.26479 345.143219,1359.12037 C344.786369,1359.12411 344.424016,1359.12341 344.064084,1359.11152 L343.532,1359.084 Z M344.578357,1358.65598 L345.183304,1358.60266 C345.872586,1358.54307 346.563266,1358.48928 347.222752,1358.45385 C347.354407,1358.41442 347.479288,1358.38174 347.594519,1358.35816 C347.415338,1358.31162 345.259834,1358.5114 344.578357,1358.65598 Z M346.815676,1355.77315 L346.523,1355.798 L346.638983,1355.79691 C347.118302,1355.79209 347.59422,1355.80074 348.030253,1355.81289 C348.193478,1355.79293 348.365604,1355.77686 348.540685,1355.76254 L348.689389,1355.75139 C348.112224,1355.68724 347.469538,1355.72001 346.815676,1355.77315 Z M473.625487,1353.69453 C473.487487,1353.75329 473.375487,1353.86647 473.089487,1353.84471 C473.076457,1353.8524 473.063496,1353.85912 473.049662,1353.864 C473.143835,1353.89137 473.235034,1353.91471 473.321878,1353.92921 C473.098776,1354.03938 472.922068,1354.18952 472.72605,1354.3294 C472.774361,1354.37405 472.822174,1354.47708 472.869487,1354.68918 C472.799487,1354.79365 472.689487,1354.82629 472.589487,1354.872 C472.663487,1354.92206 472.755487,1354.91553 473.077487,1354.95253 C473.189487,1354.94818 473.303487,1354.94165 473.413487,1354.93512 C473.431487,1354.89159 473.459487,1354.86329 473.233487,1354.31918 C473.337487,1354.21253 473.271487,1353.95135 473.647487,1353.93394 C473.673487,1353.85559 473.701487,1353.77506 473.625487,1353.69453 Z M469.384666,1354.32164 L469.329278,1354.32135 C469.253278,1354.4367 469.217278,1354.58688 469.247278,1354.74576 C469.379278,1354.74576 469.509278,1354.74794 469.631278,1354.68264 C469.945278,1354.48676 470.117278,1354.53029 470.467278,1354.5847 C470.477233,1354.52202 470.48643,1354.483 470.505207,1354.46001 C470.403983,1354.44093 470.300434,1354.42298 470.195775,1354.40647 C470.16113,1354.41595 470.117914,1354.42142 470.061278,1354.42582 C470.039656,1354.41271 470.022679,1354.39692 470.009885,1354.37976 C469.885547,1354.36169 469.758426,1354.34669 469.630909,1354.33495 C469.635896,1354.3749 469.6365,1354.41379 469.623278,1354.44976 C469.532611,1354.49184 469.487278,1354.40333 469.430389,1354.35126 L469.384666,1354.32164 Z M464.836,1349.79214 C464.75,1349.88356 464.678,1349.81826 464.35,1350.04679 C464.454,1350.05332 464.492,1350.10991 464.508,1350.18826 C464.688,1350.21003 464.894,1350.13167 465.076,1350.11644 C465.276,1350.1012 465.454,1350.15997 465.65,1350.15997 C465.578,1350.08161 465.54,1349.98367 465.238,1349.76603 C465.1,1349.74209 464.966,1349.73773 464.836,1349.79214 Z M457.732,1348.78186 C457.456,1348.79274 457.202,1348.79492 456.928,1348.8341 C456.68,1348.8711 456.508,1348.77533 456.268,1348.9538 C456.524,1349.02345 456.772,1348.95816 457.018,1348.86021 C457.116,1348.82974 457.214,1348.82321 457.314,1348.84498 C457.454,1348.89068 457.594,1348.91898 457.732,1348.78186 Z M465.384926,1347.59252 L465.111,1347.59252 C464.973,1347.60558 464.837,1347.61428 464.351,1347.73399 C464.413,1347.77099 464.479,1347.7884 464.789,1347.81452 C464.897,1347.83193 464.999,1347.86023 465.045,1347.98428 C465.141,1347.99299 465.237,1347.99952 465.387,1347.99517 C465.453,1347.90158 465.549,1347.90593 465.649,1347.83193 C465.621,1347.77099 465.593,1347.71223 465.521,1347.60558 C465.476333,1347.5976 465.430778,1347.59397 465.384926,1347.59252 Z M468.352,1344.30124 C468.228,1344.30342 468.102,1344.32736 467.876,1344.37742 C467.794,1344.46448 467.688,1344.52977 467.648,1344.65383 C467.802,1344.70824 467.948,1344.81489 468.198,1344.71912 C468.207429,1344.68368 468.230449,1344.65943 468.245178,1344.64328 L468.25,1344.637 L468.221,1344.615 L468.208,1344.61465 L468.206,1344.604 L468.170392,1344.57663 C468.134265,1344.54483 468.099886,1344.50985 468.067669,1344.47125 L468.224376,1344.44005 L468.245,1344.435 L468.290752,1344.37542 L468.352,1344.30124 Z M465.703187,1339.88323 C465.737187,1339.98988 465.823187,1340.08564 465.839187,1340.22276 C465.937187,1340.34247 465.899187,1340.42082 465.767187,1340.48829 C465.943187,1340.51876 466.111187,1340.46217 466.261187,1340.44911 C466.343187,1340.29458 466.277187,1340.164 466.129187,1339.94417 C465.995187,1339.83317 465.849187,1339.84405 465.703187,1339.88323 Z M464.748395,1338.76249 C464.620395,1338.87349 464.740395,1338.98667 464.588395,1339.07373 C464.560395,1339.2609 464.656395,1339.35449 464.844395,1339.46114 C464.940395,1339.45896 465.022395,1339.46549 465.416395,1339.08896 C465.360395,1338.98884 465.340395,1338.86914 465.300395,1338.75814 C465.038395,1338.70808 464.832395,1338.69284 464.748395,1338.76249 Z" id="Combined-Shape-Copy-20"></path>
        </g>
    </g>
</svg>
